<svg aria-hidden="true" style="position: absolute; width: 0; height: 0; overflow: hidden;" version="1.1" xmlns="http://www.w3.org/2000/svg" xmlns:xlink="http://www.w3.org/1999/xlink">
<defs>
<symbol id="icon-brand" viewBox="0 0 57 32">
<path d="M14.656 24.144c0.123 0.155 0.187 0.347 0.187 0.539 0.005 0.128-0.016 0.256-0.064 0.373-0.053 0.117-0.128 0.224-0.224 0.309-0.235 0.181-0.533 0.267-0.832 0.251h-1.456v-3.419h1.429c0.022-0.001 0.047-0.002 0.072-0.002 0.269 0 0.518 0.087 0.721 0.234l-0.004-0.002c0.174 0.139 0.284 0.351 0.284 0.588 0 0.018-0.001 0.036-0.002 0.054l0-0.002c0.005 0.187-0.053 0.373-0.171 0.517-0.107 0.139-0.261 0.235-0.432 0.272 0.192 0.032 0.368 0.139 0.491 0.288zM12.944 23.632h0.613c0.139 0.011 0.277-0.032 0.389-0.117 0.080-0.075 0.129-0.182 0.129-0.3 0-0.011-0-0.022-0.001-0.032l0 0.001c0.001-0.008 0.001-0.018 0.001-0.028 0-0.121-0.049-0.23-0.129-0.308l-0-0c-0.117-0.085-0.256-0.128-0.4-0.112h-0.603v0.896zM14.005 24.939c0.048-0.043 0.085-0.096 0.112-0.155s0.037-0.128 0.032-0.192c0-0.006 0-0.013 0-0.021 0-0.062-0.012-0.121-0.034-0.175l0.001 0.003c-0.029-0.063-0.068-0.116-0.117-0.16l-0-0c-0.117-0.085-0.267-0.128-0.416-0.123h-0.64v0.939h0.651c0.144 0.011 0.288-0.032 0.411-0.117zM17.584 25.616l-0.8-1.339h-0.299v1.339h-0.683v-3.419h1.296c0.325-0.021 0.651 0.080 0.901 0.293 0.181 0.181 0.293 0.427 0.309 0.688 0.016 0.256-0.059 0.517-0.213 0.725-0.16 0.181-0.379 0.304-0.619 0.347l0.848 1.365h-0.741zM16.485 23.813h0.56c0.389 0 0.587-0.171 0.587-0.517 0.001-0.010 0.001-0.022 0.001-0.034 0-0.063-0.012-0.122-0.034-0.177l0.001 0.003c-0.027-0.064-0.064-0.123-0.112-0.176-0.123-0.101-0.283-0.155-0.443-0.139h-0.565l0.005 1.040zM21.328 24.928h-1.365l-0.24 0.688h-0.72l1.253-3.381h0.773l1.248 3.381h-0.715l-0.235-0.688zM21.141 24.411l-0.496-1.445-0.501 1.445h0.997zM26.011 25.616h-0.677l-1.525-2.325v2.325h-0.677v-3.419h0.677l1.525 2.336v-2.336h0.677v3.419zM29.888 24.795c-0.139 0.261-0.352 0.469-0.613 0.603-0.293 0.149-0.624 0.224-0.955 0.219h-1.211v-3.419h1.211c0.331-0.005 0.656 0.064 0.955 0.213 0.261 0.128 0.475 0.336 0.613 0.592 0.144 0.277 0.213 0.587 0.213 0.896 0 0.315-0.069 0.619-0.213 0.896zM29.115 24.715c0.192-0.229 0.299-0.517 0.299-0.816s-0.107-0.587-0.299-0.816c-0.207-0.18-0.48-0.29-0.779-0.29-0.026 0-0.052 0.001-0.078 0.003l0.004-0h-0.469v2.208h0.469c0.309 0.021 0.619-0.080 0.853-0.288zM21.749 3.2s8.779 3.323 8.592 8.133v8.144s-8.768-3.328-8.587-8.144l-0.005-8.133zM38.155 17.568c1.659-1.141 3.573-1.851 5.579-2.059v-2.549c-2.309 0.891-4.261 2.507-5.579 4.608z"></path>
<path d="M37.163 18.336c1.37-2.73 3.676-4.822 6.489-5.882l0.082-0.027v-7.344s-12.496 4.736-12.235 11.589v11.589s0.56-0.208 1.435-0.608c0-0.368 0-0.741 0.037-1.12 0.261-3.179 1.765-6.128 4.192-8.197z"></path>
<path d="M35.973 22.645c0.064-0.805 0.213-1.6 0.437-2.373-1.509 1.781-2.421 4-2.613 6.331-0.021 0.219-0.027 0.443-0.032 0.667 0.709-0.341 1.536-0.768 2.4-1.269-0.219-1.104-0.288-2.235-0.192-3.355zM36.469 22.683c-0.085 1.019-0.032 2.037 0.155 3.040 3.413-2.048 7.248-5.216 7.104-9.051v-0.331c-2.443 0.272-4.725 1.344-6.496 3.045-0.416 1.056-0.672 2.165-0.763 3.296z"></path>
</symbol>
<symbol id="icon-yaco" viewBox="0 0 57 32">
<path d="M19.733 2.667l3.893 3.685h10.875v10.293l3.899 3.691v-17.669h-18.667z"></path>
<path d="M16.533 6.197v17.168h18.133v-6.827l-10.923-10.336-7.211-0.005zM31.211 20.853h-11.813v-11.547h0.837v10.763h10.976v0.784z"></path>
<path d="M24.939 26.907q-0.016 0.059-0.016 0.128 0 0.144 0.059 0.251 0.043 0.075 0.107 0.139 0.016 0.011 0.037 0.027 0.16 0.123 0.416 0.123 0.208 0 0.379-0.085 0.053-0.032 0.107-0.069l0.107 0.128h0.363l-0.277-0.331q0.165-0.224 0.165-0.576h-0.272q0 0.171-0.064 0.315-0.011 0.016-0.016 0.037l-0.368-0.432 0.128-0.096q0.139-0.101 0.197-0.197 0.027-0.043 0.043-0.091 0.016-0.064 0.016-0.128 0-0.091-0.032-0.165t-0.101-0.139q-0.027-0.027-0.064-0.048-0.117-0.069-0.272-0.069-0.192 0-0.32 0.091-0.021 0.016-0.043 0.037-0.032 0.027-0.059 0.064-0.080 0.117-0.080 0.288 0 0.091 0.043 0.187 0.043 0.101 0.155 0.24-0.208 0.149-0.283 0.261-0.032 0.053-0.053 0.112zM28.672 27.323q0.123-0.155 0.144-0.395h-0.325q-0.027 0.203-0.123 0.293-0.101 0.085-0.293 0.085-0.128 0-0.219-0.059-0.059-0.037-0.107-0.101-0.107-0.165-0.107-0.469v-0.171q0-0.304 0.117-0.459 0.043-0.059 0.101-0.096 0.096-0.059 0.229-0.059 0.187 0 0.277 0.091 0.096 0.091 0.123 0.293h0.325q-0.027-0.267-0.171-0.432-0.021-0.027-0.048-0.048-0.027-0.027-0.053-0.043-0.181-0.128-0.453-0.128-0.197 0-0.352 0.075-0.032 0.016-0.059 0.032-0.048 0.032-0.091 0.069-0.112 0.101-0.181 0.245-0.096 0.208-0.096 0.475v0.176q0.005 0.261 0.096 0.459 0.069 0.149 0.181 0.245 0.037 0.032 0.085 0.064 0.027 0.016 0.053 0.027 0.155 0.080 0.347 0.080 0.299 0 0.485-0.144 0.016-0.016 0.032-0.027 0.043-0.037 0.080-0.080zM30.528 27.136q0.096-0.208 0.096-0.491v-0.101q0-0.277-0.096-0.491-0.075-0.16-0.203-0.261-0.037-0.032-0.075-0.059-0.037-0.021-0.075-0.037-0.149-0.069-0.336-0.069t-0.336 0.069q-0.037 0.016-0.075 0.043-0.037 0.021-0.069 0.048-0.133 0.107-0.208 0.277-0.101 0.208-0.101 0.485v0.107q0.005 0.272 0.101 0.48 0.075 0.16 0.192 0.261l0.085 0.064q0.043 0.027 0.091 0.048 0.144 0.064 0.32 0.064 0.187 0 0.341-0.075 0.037-0.016 0.069-0.037 0.043-0.027 0.080-0.059 0.123-0.107 0.197-0.267zM22.187 25.648l-0.432 0.901-0.437-0.901h-0.368l0.64 1.2v0.699h0.331v-0.699l0.635-1.2h-0.368zM22.736 27.547l0.155-0.443h0.736l0.155 0.443h0.341l-0.715-1.899h-0.299l-0.715 1.899h0.341zM25.509 26.373q-0.133-0.165-0.133-0.277 0-0.069 0.032-0.123l0.021-0.032q0.021-0.021 0.043-0.037 0.043-0.027 0.107-0.027 0.059 0 0.101 0.027 0.021 0.011 0.037 0.027 0.032 0.032 0.048 0.064 0.011 0.032 0.011 0.064 0 0.059-0.027 0.112-0.021 0.037-0.053 0.069l-0.043 0.032-0.144 0.101zM30.176 26.064q0.117 0.171 0.117 0.485v0.096q0 0.32-0.117 0.491-0.048 0.069-0.112 0.107-0.096 0.059-0.224 0.059-0.117 0-0.203-0.048-0.080-0.043-0.133-0.123-0.123-0.171-0.123-0.485v-0.107q0.005-0.304 0.123-0.475 0.053-0.075 0.128-0.117 0.091-0.048 0.208-0.048 0.123 0 0.213 0.053 0.069 0.043 0.123 0.112zM23.259 26.053l0.272 0.784h-0.549l0.277-0.784zM25.637 27.312q-0.043 0.005-0.085 0.005-0.117 0-0.197-0.053-0.016-0.011-0.032-0.027-0.027-0.027-0.048-0.059-0.037-0.064-0.037-0.155 0-0.032 0.005-0.059 0.027-0.117 0.149-0.213l0.043-0.027 0.416 0.485q-0.101 0.080-0.213 0.101z"></path>
</symbol>
<symbol id="icon-company2" viewBox="0 0 57 32">
<path d="M26.651 3.696h0.075c0.133 0 0.277 0.011 0.427 0.027 0.635 0.043 1.264 0.139 1.888 0.283v-1.525c-0.64-0.16-1.296-0.267-1.952-0.309-0.251-0.021-0.512-0.032-0.789-0.037h-0.224c-1.323 0-2.635 0.171-3.915 0.501-1.456 0.363-2.853 0.933-4.149 1.691v15.141c1.248-0.677 2.576-1.195 3.957-1.541 1.088-0.277 2.197-0.448 3.317-0.507h0.048c0.187-0.011 0.373-0.016 0.565-0.016v-1.552c-1.456 0.016-2.907 0.208-4.315 0.571-0.523 0.139-1.029 0.283-1.504 0.448l-0.539 0.181v-11.808l0.235-0.112c1.76-0.837 3.664-1.323 5.605-1.429 0.016-0.005 0.032-0.005 0.048 0 0.213-0.011 0.432-0.016 0.645-0.016h0.24c0.112 0 0.224 0.005 0.336 0.011z"></path>
<path d="M30.459 5.296c-0.357 0-0.709-0.016-1.045-0.037-0.405-0.032-0.821-0.080-1.216-0.149-0.24-0.037-0.475-0.085-0.704-0.139v14.971c0.971 0.24 1.968 0.357 2.965 0.347 1.323-0.005 2.635-0.171 3.915-0.501 1.456-0.363 2.853-0.933 4.155-1.685v-14.88c-1.137 0.633-2.454 1.163-3.84 1.521l-0.117 0.026c-1.344 0.347-2.725 0.523-4.112 0.528zM36.443 5.552l0.539-0.181v11.813l-0.229 0.112c-0.885 0.421-1.808 0.752-2.757 0.992-1.157 0.299-2.341 0.453-3.531 0.459-0.357 0-0.709-0.016-1.056-0.048l-0.368-0.032v-12.149l0.432 0.032c0.309 0.021 0.635 0.027 0.987 0.027 1.515-0.005 3.019-0.197 4.485-0.571 0.501-0.133 1.003-0.283 1.499-0.453zM19.056 24.645c-0.075-0.080-0.171-0.144-0.272-0.187-0.107-0.043-0.213-0.064-0.325-0.059-0.123 0-0.24 0.021-0.347 0.064-0.101 0.043-0.192 0.101-0.272 0.181-0.073 0.076-0.133 0.167-0.174 0.266l-0.002 0.006c-0.043 0.107-0.059 0.219-0.059 0.331v2.027c-0.005 0.144 0.021 0.283 0.080 0.416 0.048 0.101 0.117 0.192 0.203 0.267 0.080 0.069 0.176 0.117 0.277 0.144 0.096 0.032 0.197 0.043 0.299 0.043 0.117 0.005 0.224-0.021 0.331-0.069 0.101-0.043 0.192-0.107 0.267-0.187s0.139-0.171 0.176-0.272c0.043-0.101 0.069-0.213 0.069-0.32v-0.229h-0.533v0.181c0.005 0.064-0.005 0.123-0.027 0.181-0.022 0.043-0.048 0.080-0.080 0.112l0-0c-0.031 0.027-0.069 0.047-0.11 0.058l-0.002 0c-0.032 0.011-0.069 0.021-0.107 0.021-0.007 0.001-0.016 0.001-0.024 0.001-0.041 0-0.081-0.008-0.116-0.023l0.002 0.001c-0.047-0.018-0.085-0.050-0.111-0.090l-0.001-0.001c-0.044-0.071-0.070-0.158-0.070-0.25 0-0.008 0-0.015 0.001-0.023l-0 0.001v-1.883c-0.005-0.107 0.016-0.208 0.064-0.304 0.053-0.075 0.139-0.124 0.236-0.124 0.009 0 0.018 0 0.026 0.001l-0.001-0c0.043 0 0.091 0.011 0.128 0.027 0.043 0.021 0.080 0.053 0.107 0.091 0.059 0.075 0.091 0.171 0.085 0.267v0.176h0.523v-0.203c0.005-0.123-0.016-0.245-0.064-0.357-0.037-0.107-0.096-0.203-0.176-0.283zM22.197 24.619c-0.165-0.139-0.379-0.219-0.597-0.219-0.112 0-0.219 0.016-0.32 0.053s-0.197 0.096-0.277 0.165c-0.085 0.080-0.16 0.176-0.203 0.288-0.053 0.123-0.080 0.256-0.080 0.389v1.941c-0.005 0.139 0.021 0.272 0.080 0.395 0.043 0.107 0.117 0.197 0.203 0.272 0.080 0.075 0.176 0.133 0.277 0.171s0.208 0.059 0.32 0.059c0.23-0.002 0.439-0.089 0.598-0.23l-0.001 0.001c0.085-0.075 0.155-0.165 0.203-0.272 0.053-0.123 0.080-0.256 0.075-0.395v-1.941c0-0.009 0.001-0.020 0.001-0.031 0-0.254-0.107-0.483-0.277-0.646l-0-0zM21.952 27.237c0.005 0.053 0 0.101-0.021 0.155-0.016 0.048-0.048 0.091-0.085 0.128-0.069 0.059-0.155 0.091-0.245 0.091s-0.181-0.032-0.251-0.091c-0.035-0.036-0.064-0.078-0.084-0.125l-0.001-0.003c-0.014-0.038-0.022-0.083-0.022-0.129 0-0.009 0-0.018 0.001-0.027l-0 0.001v-1.941c-0.005-0.053 0.005-0.101 0.021-0.155 0.021-0.048 0.048-0.091 0.085-0.128 0.069-0.059 0.16-0.091 0.251-0.091s0.176 0.032 0.245 0.091c0.037 0.037 0.069 0.080 0.085 0.128 0.021 0.053 0.027 0.101 0.021 0.155v1.941zM26.325 28.101v-3.669h-0.507l-0.667 1.941h-0.011l-0.672-1.941h-0.507v3.669h0.528v-2.235h0.005l0.517 1.584h0.261l0.517-1.584h0.011v2.235h0.523zM29.307 24.688c-0.080-0.091-0.181-0.16-0.293-0.203-0.123-0.037-0.251-0.059-0.384-0.053h-0.779v3.669h0.523v-1.435h0.272c0.165 0.011 0.325-0.027 0.469-0.096 0.123-0.069 0.219-0.165 0.288-0.283 0.064-0.096 0.101-0.208 0.123-0.32 0.021-0.139 0.027-0.277 0.027-0.416 0.005-0.176-0.011-0.357-0.053-0.528-0.032-0.128-0.101-0.24-0.192-0.336zM29.040 25.808c-0.005 0.064-0.021 0.133-0.048 0.192-0.032 0.053-0.080 0.101-0.139 0.128-0.075 0.032-0.16 0.048-0.245 0.048h-0.24v-1.253h0.272c0.080 0 0.16 0.016 0.235 0.048 0.053 0.032 0.096 0.080 0.123 0.133 0.032 0.069 0.043 0.139 0.048 0.208v0.245c0 0.085 0.005 0.171 0 0.251h-0.005zM31.787 24.432h-0.427l-0.811 3.669h0.523l0.155-0.789h0.715l0.155 0.789h0.523l-0.832-3.669zM31.307 26.816l0.256-1.333h0.011l0.256 1.333h-0.523zM35.168 26.645h-0.005l-0.795-2.213h-0.501v3.669h0.523v-2.208h0.011l0.8 2.208h0.496v-3.669h-0.528v2.213zM38.368 24.432l-0.421 1.456h-0.011l-0.421-1.456h-0.555l0.72 2.117v1.552h0.523v-1.552l0.72-2.117h-0.555zM17.6 29.141h0.251v0.709h0.171v-0.709h0.251v-0.144h-0.672v0.144zM19.717 28.997l-0.331 0.853h0.181l0.075-0.197h0.336l0.075 0.197h0.187l-0.341-0.853h-0.181zM19.691 29.509l0.117-0.315 0.117 0.315h-0.235zM21.813 29.536h0.197v0.107c-0.059 0.048-0.128 0.075-0.203 0.075-0.032 0-0.069-0.005-0.096-0.021-0.034-0.012-0.063-0.032-0.085-0.058l-0-0c-0.040-0.063-0.064-0.14-0.064-0.223 0-0 0-0.001 0-0.001v0c0-0.192 0.085-0.288 0.251-0.288 0.043 0 0.085 0.011 0.117 0.032 0.037 0.027 0.064 0.064 0.075 0.107l0.165-0.032c-0.037-0.171-0.155-0.251-0.357-0.251-0.005-0-0.010-0-0.015-0-0.109 0-0.208 0.041-0.284 0.107l0-0c-0.043 0.043-0.080 0.096-0.101 0.155-0.021 0.053-0.027 0.117-0.021 0.176-0.005 0.117 0.032 0.229 0.107 0.32 0.043 0.043 0.091 0.075 0.149 0.096 0.053 0.021 0.117 0.032 0.176 0.027 0.133 0.005 0.261-0.043 0.363-0.133v-0.336h-0.373v0.144zM23.957 28.997h-0.176v0.853h0.597v-0.144h-0.421v-0.709z"></path>
<path d="M25.595 28.997h0.171v0.853h-0.171v-0.853z"></path>
<path d="M27.536 29.568l-0.347-0.571h-0.171v0.853h0.16v-0.56l0.347 0.56h0.171v-0.853h-0.16v0.571zM29.136 29.472h0.427v-0.144h-0.427v-0.187h0.459v-0.144h-0.629v0.853h0.645v-0.144h-0.475v-0.235zM33.019 29.333h-0.336v-0.336h-0.171v0.853h0.171v-0.373h0.336v0.373h0.171v-0.853h-0.171v0.336zM34.629 29.472h0.421v-0.144h-0.421v-0.187h0.459v-0.144h-0.635v0.853h0.651v-0.144h-0.475v-0.235zM36.811 29.472c0.149-0.021 0.224-0.101 0.224-0.235 0.001-0.008 0.002-0.018 0.002-0.028 0-0.029-0.007-0.056-0.019-0.080l0 0.001c-0.016-0.035-0.039-0.063-0.069-0.085l-0.001-0c-0.075-0.037-0.16-0.053-0.251-0.048h-0.357v0.853h0.171v-0.357h0.032c0.037-0.005 0.075 0.005 0.107 0.016 0.027 0.016 0.048 0.037 0.059 0.064l0.187 0.272h0.208l-0.107-0.165c-0.043-0.085-0.112-0.155-0.187-0.208zM36.635 29.355h-0.123v-0.213h0.133c0.059-0.005 0.117 0 0.176 0.021 0.011 0.011 0.021 0.021 0.027 0.037s0.011 0.032 0.011 0.048c-0.005 0.021-0.005 0.037-0.016 0.048-0.005 0.016-0.016 0.027-0.032 0.037-0.053 0.021-0.112 0.027-0.176 0.021zM38.453 29.472h0.427v-0.144h-0.427v-0.187h0.459v-0.144h-0.629v0.853h0.651v-0.144h-0.48v-0.235z"></path>
</symbol>
<symbol id="icon-company3" viewBox="0 0 57 32">
<path d="M28.661 15.12c-0.224-0.325-0.331-0.709-0.309-1.099v-1.589c0-0.491 0.101-0.859 0.304-1.115 0.203-0.251 0.549-0.379 1.040-0.379 0.464 0 0.789 0.112 0.981 0.325 0.213 0.277 0.315 0.613 0.293 0.955v0.373h-0.827v-0.379c0.005-0.128-0.005-0.251-0.021-0.373-0.014-0.088-0.059-0.164-0.122-0.218l-0-0c-0.070-0.055-0.158-0.088-0.255-0.088-0.015 0-0.031 0.001-0.046 0.002l0.002-0c-0.013-0.001-0.027-0.002-0.042-0.002-0.103 0-0.198 0.035-0.274 0.093l0.001-0.001c-0.069 0.064-0.117 0.149-0.133 0.24-0.027 0.133-0.037 0.261-0.032 0.395v1.931c-0.016 0.187 0.021 0.373 0.107 0.544 0.037 0.053 0.096 0.101 0.16 0.128 0.069 0.032 0.144 0.043 0.213 0.032 0.107 0.011 0.213-0.021 0.293-0.085 0.065-0.060 0.11-0.141 0.122-0.233l0-0.002c0.021-0.128 0.027-0.261 0.027-0.389v-0.389h0.827v0.357c0.021 0.352-0.080 0.704-0.288 0.997-0.187 0.24-0.512 0.357-0.987 0.357s-0.832-0.128-1.035-0.389zM32.096 15.136c-0.208-0.251-0.315-0.608-0.315-1.088v-1.669c0-0.475 0.107-0.832 0.315-1.077 0.208-0.24 0.56-0.363 1.045-0.363s0.832 0.123 1.040 0.363c0.208 0.245 0.315 0.603 0.315 1.077v1.669c0 0.475-0.107 0.837-0.315 1.088-0.213 0.245-0.56 0.373-1.040 0.373s-0.837-0.128-1.045-0.373zM33.525 14.736c0.075-0.155 0.112-0.325 0.101-0.496v-2.048c0.011-0.171-0.027-0.336-0.096-0.485-0.043-0.059-0.101-0.105-0.168-0.132l-0.003-0.001c-0.069-0.032-0.144-0.043-0.219-0.032-0.075-0.011-0.149 0-0.219 0.032-0.069 0.027-0.128 0.075-0.171 0.133-0.075 0.149-0.107 0.315-0.096 0.485v2.059c-0.011 0.171 0.021 0.336 0.096 0.491 0.048 0.053 0.112 0.096 0.176 0.123 0.062 0.030 0.136 0.048 0.213 0.048s0.151-0.018 0.216-0.049l-0.003 0.001c0.064-0.027 0.123-0.069 0.171-0.123v-0.005zM35.493 10.992h0.885l0.672 3.083 0.683-3.083h0.864l0.085 4.453h-0.64l-0.064-3.099-0.661 3.099h-0.512l-0.683-3.109-0.064 3.109h-0.651l0.085-4.453zM39.68 10.992h1.387c0.795 0 1.195 0.421 1.195 1.264 0 0.805-0.421 1.211-1.259 1.211h-0.475v1.979h-0.853l0.005-4.453zM40.864 12.896c0.085 0.011 0.171 0 0.251-0.021 0.080-0.027 0.155-0.069 0.219-0.123 0.096-0.149 0.139-0.325 0.123-0.501 0.005-0.139-0.011-0.272-0.043-0.405-0.013-0.047-0.033-0.088-0.059-0.124l0.001 0.001c-0.032-0.035-0.069-0.065-0.11-0.089l-0.002-0.001c-0.117-0.053-0.245-0.075-0.379-0.069h-0.331v1.333h0.331zM43.493 10.992h0.917l0.944 4.453h-0.8l-0.181-1.029h-0.821l-0.192 1.029h-0.805l0.939-4.453zM44.277 13.904l-0.32-1.872-0.32 1.872h0.64zM46.112 10.992h0.603l1.141 2.539v-2.539h0.709v4.453h-0.565l-1.152-2.651v2.651h-0.736v-4.453zM50.229 13.744l-0.955-2.747h0.805l0.581 1.765 0.544-1.765h0.784l-0.939 2.747v1.701h-0.821v-1.701zM29.979 17.392v0.235h-0.699v1.813h-0.293v-1.813h-0.699v-0.235h1.691zM32.165 19.44h-0.224c-0.027 0-0.048-0.005-0.064-0.021-0.018-0.011-0.031-0.028-0.037-0.047l-0-0.001-0.203-0.485h-0.971l-0.197 0.485c-0.005 0.021-0.016 0.043-0.032 0.059-0.016 0.011-0.043 0.016-0.064 0.016h-0.224l0.853-2.043h0.299l0.864 2.037zM30.752 18.677h0.805l-0.341-0.832c-0.025-0.055-0.047-0.119-0.063-0.185l-0.001-0.007c-0.011 0.043-0.021 0.080-0.032 0.112l-0.032 0.085-0.336 0.827zM33.637 19.237c0.024 0.003 0.051 0.004 0.079 0.004 0.078 0 0.154-0.011 0.225-0.032l-0.006 0.001c0.043-0.005 0.085-0.021 0.123-0.037 0.037-0.011 0.075-0.032 0.112-0.048v-0.459h-0.341c-0.005 0-0.016 0-0.021-0.005-0.011 0-0.016-0.005-0.021-0.011l-0.016-0.016c0-0.005-0.005-0.016 0-0.021v-0.16h0.661v0.784c-0.053 0.037-0.112 0.069-0.171 0.101-0.064 0.027-0.128 0.048-0.192 0.069-0.069 0.016-0.139 0.032-0.213 0.037-0.080 0.011-0.165 0.016-0.251 0.016-0.144 0-0.293-0.027-0.427-0.075-0.132-0.053-0.245-0.125-0.342-0.214l0.001 0.001c-0.091-0.092-0.166-0.199-0.221-0.318l-0.003-0.007c-0.050-0.127-0.079-0.273-0.079-0.427s0.029-0.3 0.082-0.435l-0.003 0.008c0.048-0.117 0.123-0.229 0.219-0.32 0.101-0.096 0.213-0.165 0.341-0.213 0.149-0.053 0.304-0.080 0.459-0.075 0.080 0 0.16 0.005 0.24 0.016 0.069 0.011 0.139 0.027 0.203 0.053 0.123 0.044 0.23 0.108 0.321 0.188l-0.001-0.001-0.085 0.123c-0.005 0.016-0.016 0.021-0.027 0.032-0.011 0.005-0.021 0.011-0.037 0.011-0.021 0-0.037-0.005-0.053-0.016-0.027-0.016-0.053-0.032-0.085-0.048-0.037-0.021-0.075-0.043-0.112-0.059-0.053-0.016-0.107-0.032-0.16-0.043-0.062-0.014-0.133-0.021-0.206-0.021-0.121 0-0.238 0.021-0.345 0.061l0.007-0.002c-0.096 0.037-0.181 0.091-0.251 0.16-0.075 0.075-0.128 0.16-0.16 0.256-0.075 0.224-0.075 0.459 0 0.683 0.037 0.096 0.096 0.181 0.171 0.256 0.069 0.069 0.155 0.128 0.251 0.16 0.107 0.037 0.224 0.053 0.336 0.043zM36.363 19.205h0.933v0.235h-1.221v-2.048h0.293l-0.005 1.813zM38.267 19.44h-0.293v-2.048h0.293v2.048zM39.355 17.403c0.016 0.011 0.032 0.021 0.043 0.037l1.253 1.541c-0.003-0.011-0.004-0.024-0.004-0.037s0.001-0.026 0.004-0.038l-0 0.001v-1.52h0.251v2.053h-0.144c-0.021 0-0.043-0.005-0.064-0.016-0.021-0.005-0.032-0.021-0.048-0.037l-1.248-1.536v1.589h-0.245v-2.048h0.155c0.016 0 0.032 0.005 0.048 0.011zM43.056 17.392v0.229h-1.035v0.672h0.837v0.219h-0.837v0.699h1.035v0.224h-1.339v-2.043h1.339zM12.427 4.773l12.976 3.488v12.224l-12.976-3.488v-12.224zM11.595 3.733v13.861l14.64 3.936v-13.861l-14.64-3.936z"></path>
<path d="M19.44 27.968l-14.64-3.941v-13.861l14.64 3.936v13.867z"></path>
<path d="M11.835 4.613l12.811 3.445-5.445 5.163-12.811-3.451 5.445-5.157zM11.595 3.733l-6.795 6.432 14.64 3.936 6.795-6.432-14.64-3.936zM20.267 27.184l5.968-5.653-5.968-1.605v7.259z"></path>
</symbol>
<symbol id="icon-foster" viewBox="0 0 57 32">
<path d="M13.541 11.643h0.005c1.205 0 2.181 0.949 2.181 2.128 0 1.173-0.976 2.128-2.181 2.128h-0.005c-1.205 0-2.181-0.955-2.181-2.128 0-1.179 0.976-2.128 2.181-2.128z"></path>
<path d="M29.669 10.96c0-1.632-0.672-3.2-1.856-4.352-1.149-1.118-2.72-1.808-4.453-1.808-0.004 0-0.008 0-0.012 0h0.001c-1.68 0-3.285 0.651-4.469 1.808-1.184 1.152-1.856 2.72-1.856 4.352v9.008s12.645-1.376 12.645-9.008zM6.933 22.923c0 1.136 0.464 2.224 1.291 3.029 0.803 0.776 1.897 1.255 3.103 1.259h0.001c1.168-0.005 2.283-0.459 3.109-1.259 0.794-0.767 1.287-1.84 1.291-3.029v-6.267s-8.795 0.955-8.795 6.267zM11.328 24.043c-0.224 0-0.448-0.064-0.64-0.187-0.187-0.123-0.336-0.299-0.421-0.507-0.056-0.123-0.089-0.268-0.089-0.42 0-0.080 0.009-0.158 0.026-0.233l-0.001 0.007c0.043-0.219 0.149-0.421 0.315-0.576 0.16-0.16 0.363-0.267 0.587-0.309s0.459-0.021 0.667 0.064c0.213 0.085 0.389 0.229 0.517 0.416 0.128 0.181 0.192 0.4 0.192 0.624 0.005 0.144-0.027 0.293-0.085 0.432-0.059 0.133-0.139 0.256-0.251 0.363-0.107 0.107-0.229 0.187-0.373 0.245-0.139 0.059-0.288 0.085-0.443 0.085v-0.005z"></path>
<path d="M22.448 23.781q0.117-0.256 0.117-0.592v-0.101q0-0.331-0.123-0.587-0.091-0.197-0.24-0.32-0.048-0.043-0.101-0.075-0.048-0.027-0.096-0.048-0.181-0.085-0.411-0.085-0.224 0-0.411 0.085-0.048 0.021-0.096 0.048-0.053 0.032-0.101 0.075-0.149 0.123-0.24 0.32-0.117 0.256-0.117 0.592v0.112q0 0.325 0.123 0.581 0.085 0.181 0.229 0.304 0.053 0.043 0.112 0.080 0.053 0.032 0.101 0.053 0.187 0.085 0.405 0.085 0.229 0 0.416-0.091 0.048-0.021 0.091-0.048 0.064-0.037 0.117-0.085 0.139-0.123 0.224-0.304zM24.048 23.536q0.037 0.059 0.037 0.144 0 0.069-0.032 0.123-0.021 0.037-0.064 0.069-0.091 0.064-0.261 0.064-0.261 0-0.373-0.128-0.075-0.091-0.075-0.245h-0.469q0 0.165 0.064 0.299 0.021 0.048 0.048 0.085 0.005 0.005 0.005 0.011 0.112 0.16 0.325 0.256t0.475 0.096q0.379 0 0.603-0.171 0.096-0.069 0.155-0.165 0.069-0.128 0.069-0.299 0-0.149-0.059-0.272-0.043-0.091-0.123-0.171-0.181-0.176-0.581-0.299-0.219-0.064-0.331-0.139-0.080-0.053-0.101-0.123-0.011-0.032-0.011-0.064 0-0.059 0.021-0.107 0.027-0.048 0.075-0.085 0.096-0.069 0.267-0.069 0.176 0 0.277 0.085 0.021 0.021 0.043 0.048 0.053 0.075 0.053 0.192h0.469q0-0.139-0.048-0.256-0.021-0.059-0.059-0.107-0.021-0.037-0.048-0.069-0.096-0.112-0.245-0.181-0.192-0.085-0.437-0.085-0.24 0-0.432 0.080-0.197 0.080-0.299 0.224-0.043 0.059-0.069 0.123-0.037 0.096-0.037 0.208 0 0.107 0.037 0.197 0.080 0.219 0.352 0.368 0.139 0.075 0.384 0.155 0.245 0.075 0.336 0.149 0.037 0.021 0.059 0.059zM42.347 23.536q0.043 0.059 0.043 0.144 0 0.069-0.032 0.123-0.021 0.037-0.064 0.069-0.091 0.064-0.261 0.064-0.261 0-0.373-0.128-0.075-0.091-0.075-0.245h-0.469q0 0.165 0.064 0.299 0.021 0.048 0.048 0.085 0 0.005 0.005 0.011 0.112 0.16 0.325 0.256t0.475 0.096q0.379 0 0.603-0.171 0.096-0.069 0.149-0.165 0.075-0.128 0.075-0.299 0-0.149-0.059-0.272-0.043-0.091-0.123-0.171-0.187-0.176-0.587-0.299-0.213-0.064-0.325-0.139-0.080-0.053-0.101-0.123-0.011-0.032-0.011-0.064 0-0.059 0.021-0.107 0.027-0.048 0.075-0.085 0.096-0.069 0.267-0.069 0.176 0 0.277 0.085 0.021 0.021 0.043 0.048 0.053 0.075 0.053 0.192h0.469q0-0.139-0.048-0.256-0.027-0.059-0.059-0.107-0.021-0.037-0.048-0.069-0.096-0.112-0.245-0.181-0.192-0.085-0.437-0.085-0.24 0-0.437 0.080-0.192 0.080-0.299 0.224-0.043 0.059-0.064 0.123-0.037 0.096-0.037 0.208 0 0.107 0.032 0.197 0.085 0.219 0.357 0.368 0.139 0.075 0.384 0.155 0.245 0.075 0.336 0.149 0.032 0.021 0.053 0.059zM19.413 23.349h0.896v-0.379h-0.896v-0.587h1.013v-0.384h-1.483v2.277h0.469v-0.928zM25.888 22.384h0.699v-0.384h-1.856v0.384h0.688v1.893h0.469v-1.893zM27.323 23.291h0.896v-0.368h-0.896v-0.539h1.051v-0.384h-1.52v2.277h1.525v-0.379h-1.056v-0.608zM29.12 23.445h0.373l0.427 0.832h0.507v-0.021l-0.496-0.928q0.208-0.096 0.309-0.251 0.096-0.155 0.096-0.389 0-0.229-0.107-0.384-0.043-0.069-0.112-0.123-0.219-0.181-0.619-0.181h-0.848v2.277h0.469v-0.832zM31.963 24.277v-0.8h0.411q0.4 0 0.629-0.197 0.080-0.064 0.133-0.149 0.096-0.155 0.096-0.373 0-0.176-0.064-0.32-0.016-0.037-0.037-0.075-0.032-0.053-0.069-0.096-0.096-0.107-0.229-0.171-0.197-0.096-0.453-0.096h-0.885v2.277h0.469zM34.027 23.291h0.896v-0.368h-0.896v-0.539h1.051v-0.384h-1.52v2.277h1.525v-0.379h-1.056v-0.608zM36.4 22.384h0.699v-0.384h-1.851v0.384h0.688v1.893h0.464v-1.893zM37.835 23.291h0.901v-0.368h-0.901v-0.539h1.056v-0.384h-1.525v2.277h1.525v-0.379h-1.056v-0.608zM39.637 23.445h0.373l0.427 0.832h0.501v-0.021l-0.491-0.928q0.203-0.096 0.304-0.251t0.101-0.389q0-0.229-0.107-0.384-0.048-0.069-0.112-0.123-0.219-0.181-0.624-0.181h-0.843v2.277h0.469v-0.832zM21.963 22.544q0.128 0.187 0.128 0.544v0.112q0 0.352-0.128 0.539-0.059 0.080-0.133 0.128-0.096 0.059-0.229 0.059t-0.229-0.059q-0.080-0.048-0.139-0.133-0.128-0.192-0.128-0.544v-0.107q0-0.357 0.128-0.539 0.059-0.085 0.133-0.128 0.096-0.059 0.229-0.059t0.235 0.059q0.075 0.048 0.133 0.128zM29.499 23.067h-0.379v-0.683h0.379q0.187 0 0.277 0.091l0.027 0.027q0.069 0.091 0.069 0.224 0 0.123-0.059 0.203-0.016 0.027-0.043 0.048l-0.005 0.005q-0.096 0.085-0.267 0.085zM32.379 23.093h-0.416v-0.709h0.427q0.144 0 0.235 0.069 0.021 0.016 0.037 0.032 0.021 0.027 0.037 0.053 0.064 0.091 0.064 0.219 0 0.133-0.064 0.213-0.016 0.021-0.037 0.037-0.096 0.085-0.283 0.085zM40.011 23.067h-0.373v-0.683h0.373q0.192 0 0.283 0.091 0.011 0.016 0.027 0.027 0.064 0.091 0.064 0.224 0 0.123-0.059 0.203-0.016 0.027-0.037 0.048-0.005 0-0.005 0.005-0.096 0.085-0.272 0.085z"></path>
</symbol>
<symbol id="icon-company1" viewBox="0 0 57 32">
<path d="M20.448 27.088c0.011 0 0.016 0 0.021 0.005 0.011 0.005 0.016 0.005 0.021 0.011l0.112 0.117c-0.085 0.091-0.192 0.165-0.309 0.219-0.139 0.053-0.288 0.080-0.437 0.080-0.144 0-0.283-0.027-0.411-0.075-0.123-0.048-0.224-0.117-0.315-0.208-0.085-0.091-0.155-0.203-0.197-0.32-0.048-0.128-0.075-0.267-0.069-0.405-0.005-0.144 0.021-0.283 0.075-0.411 0.1-0.244 0.293-0.432 0.532-0.526l0.006-0.002c0.139-0.048 0.283-0.075 0.427-0.075 0.133 0 0.267 0.021 0.395 0.069 0.107 0.043 0.208 0.107 0.293 0.181l-0.091 0.123c-0.005 0.011-0.016 0.016-0.027 0.021-0.011 0.011-0.021 0.011-0.032 0.011-0.016 0-0.032-0.005-0.043-0.011l-0.048-0.032-0.069-0.043c-0.032-0.016-0.059-0.032-0.091-0.043l-0.128-0.032c-0.053-0.011-0.107-0.016-0.16-0.011-0.107-0.005-0.208 0.016-0.304 0.053-0.091 0.032-0.176 0.085-0.24 0.155-0.069 0.069-0.123 0.155-0.155 0.245-0.037 0.101-0.059 0.213-0.059 0.325s0.016 0.224 0.059 0.325c0.032 0.091 0.085 0.176 0.149 0.245s0.144 0.117 0.229 0.155c0.091 0.032 0.187 0.053 0.283 0.048 0.053 0.005 0.112 0 0.165-0.005 0.091-0.011 0.181-0.043 0.256-0.091 0.037-0.021 0.075-0.053 0.107-0.080 0.016-0.011 0.032-0.021 0.053-0.021zM23.616 26.512c0.005 0.139-0.021 0.272-0.075 0.405-0.043 0.117-0.112 0.224-0.203 0.315-0.096 0.091-0.203 0.16-0.325 0.208-0.272 0.096-0.565 0.096-0.837 0-0.117-0.048-0.229-0.117-0.32-0.208s-0.16-0.203-0.208-0.32c-0.101-0.261-0.101-0.549 0-0.816 0.048-0.117 0.117-0.224 0.208-0.32 0.091-0.085 0.203-0.155 0.32-0.197 0.272-0.101 0.565-0.101 0.837 0 0.123 0.048 0.229 0.117 0.32 0.208s0.165 0.197 0.208 0.315c0.053 0.128 0.080 0.267 0.075 0.411zM23.328 26.512c0.005-0.112-0.016-0.224-0.053-0.331-0.032-0.095-0.081-0.177-0.144-0.246l0 0c-0.064-0.064-0.144-0.117-0.235-0.149-0.192-0.075-0.411-0.075-0.603 0-0.091 0.032-0.171 0.085-0.235 0.149-0.064 0.075-0.117 0.155-0.149 0.245-0.069 0.213-0.069 0.443 0 0.656 0.032 0.091 0.085 0.171 0.149 0.245 0.064 0.064 0.144 0.117 0.235 0.149 0.192 0.069 0.411 0.069 0.603 0 0.091-0.032 0.171-0.085 0.235-0.149 0.064-0.075 0.117-0.155 0.144-0.245 0.037-0.107 0.059-0.219 0.053-0.325zM25.781 26.853l0.027 0.075c0.011-0.027 0.021-0.053 0.032-0.075 0.011-0.027 0.021-0.048 0.037-0.075l0.699-1.211c0.016-0.021 0.027-0.037 0.037-0.037 0.021-0.005 0.043-0.011 0.059-0.011h0.208v1.979h-0.245v-1.584l-0.704 1.232c-0.011 0.016-0.021 0.032-0.043 0.043-0.016 0.012-0.036 0.020-0.058 0.021l-0 0h-0.043c-0.022-0.002-0.042-0.009-0.059-0.022l0 0c-0.017-0.012-0.031-0.026-0.042-0.042l-0-0.001-0.725-1.237v1.584h-0.235v-1.973h0.208c0.016 0 0.037 0.005 0.053 0.011 0.021 0.005 0.032 0.021 0.043 0.037l0.715 1.216c0.016 0.021 0.027 0.043 0.037 0.069zM28.416 26.752v0.741h-0.272v-1.973h0.608c0.117 0 0.235 0.016 0.347 0.043 0.085 0.027 0.171 0.069 0.24 0.123 0.059 0.059 0.107 0.123 0.139 0.197 0.032 0.080 0.048 0.165 0.043 0.251 0 0.085-0.016 0.171-0.048 0.251s-0.085 0.144-0.149 0.197c-0.069 0.059-0.155 0.107-0.245 0.133-0.107 0.032-0.219 0.048-0.331 0.043l-0.331-0.005zM28.416 26.544h0.331c0.075 0 0.144-0.011 0.213-0.032 0.112-0.033 0.201-0.11 0.25-0.211l0.001-0.002c0.021-0.053 0.032-0.112 0.032-0.165 0-0.059-0.005-0.112-0.027-0.165-0.025-0.052-0.057-0.096-0.096-0.133l-0-0c-0.107-0.075-0.24-0.117-0.373-0.107h-0.331v0.816zM32.107 27.499h-0.219c-0.001 0-0.003 0-0.004 0-0.021 0-0.040-0.008-0.055-0.021l0 0c-0.016-0.010-0.029-0.025-0.037-0.042l-0-0.001-0.187-0.48h-0.939l-0.192 0.48c-0.005 0.016-0.021 0.032-0.032 0.043-0.021 0.011-0.043 0.021-0.064 0.021h-0.219l0.827-1.979h0.283l0.837 1.979zM30.747 26.763h0.773l-0.325-0.805c-0.023-0.050-0.045-0.11-0.062-0.173l-0.002-0.009-0.032 0.101c-0.011 0.032-0.021 0.059-0.027 0.085l-0.325 0.8zM33.291 25.531c0.016 0.011 0.032 0.021 0.043 0.037l1.2 1.488v-1.536h0.245v1.979h-0.139c-0.021 0-0.037-0.005-0.059-0.016-0.017-0.008-0.031-0.019-0.043-0.032l-0-0-1.2-1.488c0.005 0.021 0.005 0.043 0 0.064v1.472h-0.245v-1.979h0.149c0.016 0 0.032 0.005 0.048 0.011zM36.8 26.709v0.784h-0.277v-0.784l-0.757-1.189h0.245c0.021 0 0.043 0.005 0.059 0.021 0.016 0.011 0.027 0.027 0.037 0.043l0.475 0.768c0.019 0.026 0.035 0.056 0.047 0.088l0.001 0.003c0.016 0.027 0.027 0.053 0.037 0.085l0.037-0.085c0.011-0.032 0.027-0.064 0.043-0.091l0.469-0.773c0.011-0.016 0.021-0.032 0.037-0.043 0.016-0.012 0.036-0.020 0.058-0.021l0-0h0.245l-0.757 1.195zM25.643 22.208c0.117 0.016 0.24 0.027 0.363 0.037 1.851-0.789 3.419-2.080 4.501-3.712 1.088-1.632 1.643-3.536 1.6-5.467l-2.043-1.941c0.416 2.053 0.224 4.181-0.56 6.139-0.779 1.957-2.117 3.669-3.861 4.944z"></path>
<path d="M24.917 22.117l0.053 0.011c1.861-1.269 3.285-3.045 4.080-5.093s0.923-4.272 0.373-6.395l-2.907-2.768c0.91 1.717 1.445 3.754 1.445 5.916 0 0.503-0.029 1-0.085 1.488l0.006-0.059c-0.283 2.523-1.312 4.917-2.965 6.901zM34.768 15.349c-0.491 2.123-1.691 4.037-3.419 5.456-0.501 0.421-1.045 0.789-1.621 1.115 1.461-0.418 2.725-1.119 3.787-2.047l-0.011 0.010c1.077-0.944 1.915-2.112 2.443-3.413l-1.179-1.12z"></path>
<path d="M34.304 15.040l-1.675-1.6c-0.032 1.824-0.576 3.6-1.573 5.157-1.003 1.552-2.421 2.827-4.107 3.68h0.005c0.379 0 0.752-0.021 1.125-0.064 1.579-0.613 2.976-1.589 4.064-2.843 1.083-1.253 1.829-2.741 2.16-4.331zM25.157 6.709l-2-1.909c-1.792 0.656-3.328 1.813-4.416 3.317-1.088 1.509-1.669 3.291-1.675 5.12 0.005 2.016 0.72 3.979 2.027 5.568s3.131 2.72 5.189 3.205c1.835-2.128 2.907-4.763 3.067-7.515s-0.608-5.483-2.192-7.787zM38.933 14.741c-0.011-2.395-1.013-4.688-2.789-6.384-1.781-1.696-4.187-2.651-6.704-2.656-1.163 0-2.315 0.203-3.397 0.603l12.256 11.675c0.416-1.029 0.635-2.128 0.635-3.237z"></path>
</symbol>
</defs>
</svg>
