<!-- Generated by IcoMoon.io -->
<svg version="1.1" xmlns="http://www.w3.org/2000/svg" width="57" height="32" viewBox="0 0 57 32">
<path d="M14.656 24.144c0.123 0.155 0.187 0.347 0.187 0.539 0.005 0.128-0.016 0.256-0.064 0.373-0.053 0.117-0.128 0.224-0.224 0.309-0.235 0.181-0.533 0.267-0.832 0.251h-1.456v-3.419h1.429c0.022-0.001 0.047-0.002 0.072-0.002 0.269 0 0.518 0.087 0.721 0.234l-0.004-0.002c0.174 0.139 0.284 0.351 0.284 0.588 0 0.018-0.001 0.036-0.002 0.054l0-0.002c0.005 0.187-0.053 0.373-0.171 0.517-0.107 0.139-0.261 0.235-0.432 0.272 0.192 0.032 0.368 0.139 0.491 0.288zM12.944 23.632h0.613c0.139 0.011 0.277-0.032 0.389-0.117 0.080-0.075 0.129-0.182 0.129-0.3 0-0.011-0-0.022-0.001-0.032l0 0.001c0.001-0.008 0.001-0.018 0.001-0.028 0-0.121-0.049-0.23-0.129-0.308l-0-0c-0.117-0.085-0.256-0.128-0.4-0.112h-0.603v0.896zM14.005 24.939c0.048-0.043 0.085-0.096 0.112-0.155s0.037-0.128 0.032-0.192c0-0.006 0-0.013 0-0.021 0-0.062-0.012-0.121-0.034-0.175l0.001 0.003c-0.029-0.063-0.068-0.116-0.117-0.16l-0-0c-0.117-0.085-0.267-0.128-0.416-0.123h-0.64v0.939h0.651c0.144 0.011 0.288-0.032 0.411-0.117zM17.584 25.616l-0.8-1.339h-0.299v1.339h-0.683v-3.419h1.296c0.325-0.021 0.651 0.080 0.901 0.293 0.181 0.181 0.293 0.427 0.309 0.688 0.016 0.256-0.059 0.517-0.213 0.725-0.16 0.181-0.379 0.304-0.619 0.347l0.848 1.365h-0.741zM16.485 23.813h0.56c0.389 0 0.587-0.171 0.587-0.517 0.001-0.010 0.001-0.022 0.001-0.034 0-0.063-0.012-0.122-0.034-0.177l0.001 0.003c-0.027-0.064-0.064-0.123-0.112-0.176-0.123-0.101-0.283-0.155-0.443-0.139h-0.565l0.005 1.040zM21.328 24.928h-1.365l-0.24 0.688h-0.72l1.253-3.381h0.773l1.248 3.381h-0.715l-0.235-0.688zM21.141 24.411l-0.496-1.445-0.501 1.445h0.997zM26.011 25.616h-0.677l-1.525-2.325v2.325h-0.677v-3.419h0.677l1.525 2.336v-2.336h0.677v3.419zM29.888 24.795c-0.139 0.261-0.352 0.469-0.613 0.603-0.293 0.149-0.624 0.224-0.955 0.219h-1.211v-3.419h1.211c0.331-0.005 0.656 0.064 0.955 0.213 0.261 0.128 0.475 0.336 0.613 0.592 0.144 0.277 0.213 0.587 0.213 0.896 0 0.315-0.069 0.619-0.213 0.896zM29.115 24.715c0.192-0.229 0.299-0.517 0.299-0.816s-0.107-0.587-0.299-0.816c-0.207-0.18-0.48-0.29-0.779-0.29-0.026 0-0.052 0.001-0.078 0.003l0.004-0h-0.469v2.208h0.469c0.309 0.021 0.619-0.080 0.853-0.288zM21.749 3.2s8.779 3.323 8.592 8.133v8.144s-8.768-3.328-8.587-8.144l-0.005-8.133zM38.155 17.568c1.659-1.141 3.573-1.851 5.579-2.059v-2.549c-2.309 0.891-4.261 2.507-5.579 4.608z"></path>
<path d="M37.163 18.336c1.37-2.73 3.676-4.822 6.489-5.882l0.082-0.027v-7.344s-12.496 4.736-12.235 11.589v11.589s0.56-0.208 1.435-0.608c0-0.368 0-0.741 0.037-1.12 0.261-3.179 1.765-6.128 4.192-8.197z"></path>
<path d="M35.973 22.645c0.064-0.805 0.213-1.6 0.437-2.373-1.509 1.781-2.421 4-2.613 6.331-0.021 0.219-0.027 0.443-0.032 0.667 0.709-0.341 1.536-0.768 2.4-1.269-0.219-1.104-0.288-2.235-0.192-3.355zM36.469 22.683c-0.085 1.019-0.032 2.037 0.155 3.040 3.413-2.048 7.248-5.216 7.104-9.051v-0.331c-2.443 0.272-4.725 1.344-6.496 3.045-0.416 1.056-0.672 2.165-0.763 3.296z"></path>
</svg>
