<!-- Generated by IcoMoon.io -->
<svg version="1.1" xmlns="http://www.w3.org/2000/svg" width="57" height="32" viewBox="0 0 57 32">
<path d="M26.651 3.696h0.075c0.133 0 0.277 0.011 0.427 0.027 0.635 0.043 1.264 0.139 1.888 0.283v-1.525c-0.64-0.16-1.296-0.267-1.952-0.309-0.251-0.021-0.512-0.032-0.789-0.037h-0.224c-1.323 0-2.635 0.171-3.915 0.501-1.456 0.363-2.853 0.933-4.149 1.691v15.141c1.248-0.677 2.576-1.195 3.957-1.541 1.088-0.277 2.197-0.448 3.317-0.507h0.048c0.187-0.011 0.373-0.016 0.565-0.016v-1.552c-1.456 0.016-2.907 0.208-4.315 0.571-0.523 0.139-1.029 0.283-1.504 0.448l-0.539 0.181v-11.808l0.235-0.112c1.76-0.837 3.664-1.323 5.605-1.429 0.016-0.005 0.032-0.005 0.048 0 0.213-0.011 0.432-0.016 0.645-0.016h0.24c0.112 0 0.224 0.005 0.336 0.011z"></path>
<path d="M30.459 5.296c-0.357 0-0.709-0.016-1.045-0.037-0.405-0.032-0.821-0.080-1.216-0.149-0.24-0.037-0.475-0.085-0.704-0.139v14.971c0.971 0.24 1.968 0.357 2.965 0.347 1.323-0.005 2.635-0.171 3.915-0.501 1.456-0.363 2.853-0.933 4.155-1.685v-14.88c-1.137 0.633-2.454 1.163-3.84 1.521l-0.117 0.026c-1.344 0.347-2.725 0.523-4.112 0.528zM36.443 5.552l0.539-0.181v11.813l-0.229 0.112c-0.885 0.421-1.808 0.752-2.757 0.992-1.157 0.299-2.341 0.453-3.531 0.459-0.357 0-0.709-0.016-1.056-0.048l-0.368-0.032v-12.149l0.432 0.032c0.309 0.021 0.635 0.027 0.987 0.027 1.515-0.005 3.019-0.197 4.485-0.571 0.501-0.133 1.003-0.283 1.499-0.453zM19.056 24.645c-0.075-0.080-0.171-0.144-0.272-0.187-0.107-0.043-0.213-0.064-0.325-0.059-0.123 0-0.24 0.021-0.347 0.064-0.101 0.043-0.192 0.101-0.272 0.181-0.073 0.076-0.133 0.167-0.174 0.266l-0.002 0.006c-0.043 0.107-0.059 0.219-0.059 0.331v2.027c-0.005 0.144 0.021 0.283 0.080 0.416 0.048 0.101 0.117 0.192 0.203 0.267 0.080 0.069 0.176 0.117 0.277 0.144 0.096 0.032 0.197 0.043 0.299 0.043 0.117 0.005 0.224-0.021 0.331-0.069 0.101-0.043 0.192-0.107 0.267-0.187s0.139-0.171 0.176-0.272c0.043-0.101 0.069-0.213 0.069-0.32v-0.229h-0.533v0.181c0.005 0.064-0.005 0.123-0.027 0.181-0.022 0.043-0.048 0.080-0.080 0.112l0-0c-0.031 0.027-0.069 0.047-0.11 0.058l-0.002 0c-0.032 0.011-0.069 0.021-0.107 0.021-0.007 0.001-0.016 0.001-0.024 0.001-0.041 0-0.081-0.008-0.116-0.023l0.002 0.001c-0.047-0.018-0.085-0.050-0.111-0.090l-0.001-0.001c-0.044-0.071-0.070-0.158-0.070-0.25 0-0.008 0-0.015 0.001-0.023l-0 0.001v-1.883c-0.005-0.107 0.016-0.208 0.064-0.304 0.053-0.075 0.139-0.124 0.236-0.124 0.009 0 0.018 0 0.026 0.001l-0.001-0c0.043 0 0.091 0.011 0.128 0.027 0.043 0.021 0.080 0.053 0.107 0.091 0.059 0.075 0.091 0.171 0.085 0.267v0.176h0.523v-0.203c0.005-0.123-0.016-0.245-0.064-0.357-0.037-0.107-0.096-0.203-0.176-0.283zM22.197 24.619c-0.165-0.139-0.379-0.219-0.597-0.219-0.112 0-0.219 0.016-0.32 0.053s-0.197 0.096-0.277 0.165c-0.085 0.080-0.16 0.176-0.203 0.288-0.053 0.123-0.080 0.256-0.080 0.389v1.941c-0.005 0.139 0.021 0.272 0.080 0.395 0.043 0.107 0.117 0.197 0.203 0.272 0.080 0.075 0.176 0.133 0.277 0.171s0.208 0.059 0.32 0.059c0.23-0.002 0.439-0.089 0.598-0.23l-0.001 0.001c0.085-0.075 0.155-0.165 0.203-0.272 0.053-0.123 0.080-0.256 0.075-0.395v-1.941c0-0.009 0.001-0.020 0.001-0.031 0-0.254-0.107-0.483-0.277-0.646l-0-0zM21.952 27.237c0.005 0.053 0 0.101-0.021 0.155-0.016 0.048-0.048 0.091-0.085 0.128-0.069 0.059-0.155 0.091-0.245 0.091s-0.181-0.032-0.251-0.091c-0.035-0.036-0.064-0.078-0.084-0.125l-0.001-0.003c-0.014-0.038-0.022-0.083-0.022-0.129 0-0.009 0-0.018 0.001-0.027l-0 0.001v-1.941c-0.005-0.053 0.005-0.101 0.021-0.155 0.021-0.048 0.048-0.091 0.085-0.128 0.069-0.059 0.16-0.091 0.251-0.091s0.176 0.032 0.245 0.091c0.037 0.037 0.069 0.080 0.085 0.128 0.021 0.053 0.027 0.101 0.021 0.155v1.941zM26.325 28.101v-3.669h-0.507l-0.667 1.941h-0.011l-0.672-1.941h-0.507v3.669h0.528v-2.235h0.005l0.517 1.584h0.261l0.517-1.584h0.011v2.235h0.523zM29.307 24.688c-0.080-0.091-0.181-0.16-0.293-0.203-0.123-0.037-0.251-0.059-0.384-0.053h-0.779v3.669h0.523v-1.435h0.272c0.165 0.011 0.325-0.027 0.469-0.096 0.123-0.069 0.219-0.165 0.288-0.283 0.064-0.096 0.101-0.208 0.123-0.32 0.021-0.139 0.027-0.277 0.027-0.416 0.005-0.176-0.011-0.357-0.053-0.528-0.032-0.128-0.101-0.24-0.192-0.336zM29.040 25.808c-0.005 0.064-0.021 0.133-0.048 0.192-0.032 0.053-0.080 0.101-0.139 0.128-0.075 0.032-0.16 0.048-0.245 0.048h-0.24v-1.253h0.272c0.080 0 0.16 0.016 0.235 0.048 0.053 0.032 0.096 0.080 0.123 0.133 0.032 0.069 0.043 0.139 0.048 0.208v0.245c0 0.085 0.005 0.171 0 0.251h-0.005zM31.787 24.432h-0.427l-0.811 3.669h0.523l0.155-0.789h0.715l0.155 0.789h0.523l-0.832-3.669zM31.307 26.816l0.256-1.333h0.011l0.256 1.333h-0.523zM35.168 26.645h-0.005l-0.795-2.213h-0.501v3.669h0.523v-2.208h0.011l0.8 2.208h0.496v-3.669h-0.528v2.213zM38.368 24.432l-0.421 1.456h-0.011l-0.421-1.456h-0.555l0.72 2.117v1.552h0.523v-1.552l0.72-2.117h-0.555zM17.6 29.141h0.251v0.709h0.171v-0.709h0.251v-0.144h-0.672v0.144zM19.717 28.997l-0.331 0.853h0.181l0.075-0.197h0.336l0.075 0.197h0.187l-0.341-0.853h-0.181zM19.691 29.509l0.117-0.315 0.117 0.315h-0.235zM21.813 29.536h0.197v0.107c-0.059 0.048-0.128 0.075-0.203 0.075-0.032 0-0.069-0.005-0.096-0.021-0.034-0.012-0.063-0.032-0.085-0.058l-0-0c-0.040-0.063-0.064-0.14-0.064-0.223 0-0 0-0.001 0-0.001v0c0-0.192 0.085-0.288 0.251-0.288 0.043 0 0.085 0.011 0.117 0.032 0.037 0.027 0.064 0.064 0.075 0.107l0.165-0.032c-0.037-0.171-0.155-0.251-0.357-0.251-0.005-0-0.010-0-0.015-0-0.109 0-0.208 0.041-0.284 0.107l0-0c-0.043 0.043-0.080 0.096-0.101 0.155-0.021 0.053-0.027 0.117-0.021 0.176-0.005 0.117 0.032 0.229 0.107 0.32 0.043 0.043 0.091 0.075 0.149 0.096 0.053 0.021 0.117 0.032 0.176 0.027 0.133 0.005 0.261-0.043 0.363-0.133v-0.336h-0.373v0.144zM23.957 28.997h-0.176v0.853h0.597v-0.144h-0.421v-0.709z"></path>
<path d="M25.595 28.997h0.171v0.853h-0.171v-0.853z"></path>
<path d="M27.536 29.568l-0.347-0.571h-0.171v0.853h0.16v-0.56l0.347 0.56h0.171v-0.853h-0.16v0.571zM29.136 29.472h0.427v-0.144h-0.427v-0.187h0.459v-0.144h-0.629v0.853h0.645v-0.144h-0.475v-0.235zM33.019 29.333h-0.336v-0.336h-0.171v0.853h0.171v-0.373h0.336v0.373h0.171v-0.853h-0.171v0.336zM34.629 29.472h0.421v-0.144h-0.421v-0.187h0.459v-0.144h-0.635v0.853h0.651v-0.144h-0.475v-0.235zM36.811 29.472c0.149-0.021 0.224-0.101 0.224-0.235 0.001-0.008 0.002-0.018 0.002-0.028 0-0.029-0.007-0.056-0.019-0.080l0 0.001c-0.016-0.035-0.039-0.063-0.069-0.085l-0.001-0c-0.075-0.037-0.16-0.053-0.251-0.048h-0.357v0.853h0.171v-0.357h0.032c0.037-0.005 0.075 0.005 0.107 0.016 0.027 0.016 0.048 0.037 0.059 0.064l0.187 0.272h0.208l-0.107-0.165c-0.043-0.085-0.112-0.155-0.187-0.208zM36.635 29.355h-0.123v-0.213h0.133c0.059-0.005 0.117 0 0.176 0.021 0.011 0.011 0.021 0.021 0.027 0.037s0.011 0.032 0.011 0.048c-0.005 0.021-0.005 0.037-0.016 0.048-0.005 0.016-0.016 0.027-0.032 0.037-0.053 0.021-0.112 0.027-0.176 0.021zM38.453 29.472h0.427v-0.144h-0.427v-0.187h0.459v-0.144h-0.629v0.853h0.651v-0.144h-0.48v-0.235z"></path>
</svg>
