<!-- Generated by IcoMoon.io -->
<svg version="1.1" xmlns="http://www.w3.org/2000/svg" width="57" height="32" viewBox="0 0 57 32">
<path d="M20.448 27.088c0.011 0 0.016 0 0.021 0.005 0.011 0.005 0.016 0.005 0.021 0.011l0.112 0.117c-0.085 0.091-0.192 0.165-0.309 0.219-0.139 0.053-0.288 0.080-0.437 0.080-0.144 0-0.283-0.027-0.411-0.075-0.123-0.048-0.224-0.117-0.315-0.208-0.085-0.091-0.155-0.203-0.197-0.32-0.048-0.128-0.075-0.267-0.069-0.405-0.005-0.144 0.021-0.283 0.075-0.411 0.1-0.244 0.293-0.432 0.532-0.526l0.006-0.002c0.139-0.048 0.283-0.075 0.427-0.075 0.133 0 0.267 0.021 0.395 0.069 0.107 0.043 0.208 0.107 0.293 0.181l-0.091 0.123c-0.005 0.011-0.016 0.016-0.027 0.021-0.011 0.011-0.021 0.011-0.032 0.011-0.016 0-0.032-0.005-0.043-0.011l-0.048-0.032-0.069-0.043c-0.032-0.016-0.059-0.032-0.091-0.043l-0.128-0.032c-0.053-0.011-0.107-0.016-0.16-0.011-0.107-0.005-0.208 0.016-0.304 0.053-0.091 0.032-0.176 0.085-0.24 0.155-0.069 0.069-0.123 0.155-0.155 0.245-0.037 0.101-0.059 0.213-0.059 0.325s0.016 0.224 0.059 0.325c0.032 0.091 0.085 0.176 0.149 0.245s0.144 0.117 0.229 0.155c0.091 0.032 0.187 0.053 0.283 0.048 0.053 0.005 0.112 0 0.165-0.005 0.091-0.011 0.181-0.043 0.256-0.091 0.037-0.021 0.075-0.053 0.107-0.080 0.016-0.011 0.032-0.021 0.053-0.021zM23.616 26.512c0.005 0.139-0.021 0.272-0.075 0.405-0.043 0.117-0.112 0.224-0.203 0.315-0.096 0.091-0.203 0.16-0.325 0.208-0.272 0.096-0.565 0.096-0.837 0-0.117-0.048-0.229-0.117-0.32-0.208s-0.16-0.203-0.208-0.32c-0.101-0.261-0.101-0.549 0-0.816 0.048-0.117 0.117-0.224 0.208-0.32 0.091-0.085 0.203-0.155 0.32-0.197 0.272-0.101 0.565-0.101 0.837 0 0.123 0.048 0.229 0.117 0.32 0.208s0.165 0.197 0.208 0.315c0.053 0.128 0.080 0.267 0.075 0.411zM23.328 26.512c0.005-0.112-0.016-0.224-0.053-0.331-0.032-0.095-0.081-0.177-0.144-0.246l0 0c-0.064-0.064-0.144-0.117-0.235-0.149-0.192-0.075-0.411-0.075-0.603 0-0.091 0.032-0.171 0.085-0.235 0.149-0.064 0.075-0.117 0.155-0.149 0.245-0.069 0.213-0.069 0.443 0 0.656 0.032 0.091 0.085 0.171 0.149 0.245 0.064 0.064 0.144 0.117 0.235 0.149 0.192 0.069 0.411 0.069 0.603 0 0.091-0.032 0.171-0.085 0.235-0.149 0.064-0.075 0.117-0.155 0.144-0.245 0.037-0.107 0.059-0.219 0.053-0.325zM25.781 26.853l0.027 0.075c0.011-0.027 0.021-0.053 0.032-0.075 0.011-0.027 0.021-0.048 0.037-0.075l0.699-1.211c0.016-0.021 0.027-0.037 0.037-0.037 0.021-0.005 0.043-0.011 0.059-0.011h0.208v1.979h-0.245v-1.584l-0.704 1.232c-0.011 0.016-0.021 0.032-0.043 0.043-0.016 0.012-0.036 0.020-0.058 0.021l-0 0h-0.043c-0.022-0.002-0.042-0.009-0.059-0.022l0 0c-0.017-0.012-0.031-0.026-0.042-0.042l-0-0.001-0.725-1.237v1.584h-0.235v-1.973h0.208c0.016 0 0.037 0.005 0.053 0.011 0.021 0.005 0.032 0.021 0.043 0.037l0.715 1.216c0.016 0.021 0.027 0.043 0.037 0.069zM28.416 26.752v0.741h-0.272v-1.973h0.608c0.117 0 0.235 0.016 0.347 0.043 0.085 0.027 0.171 0.069 0.24 0.123 0.059 0.059 0.107 0.123 0.139 0.197 0.032 0.080 0.048 0.165 0.043 0.251 0 0.085-0.016 0.171-0.048 0.251s-0.085 0.144-0.149 0.197c-0.069 0.059-0.155 0.107-0.245 0.133-0.107 0.032-0.219 0.048-0.331 0.043l-0.331-0.005zM28.416 26.544h0.331c0.075 0 0.144-0.011 0.213-0.032 0.112-0.033 0.201-0.11 0.25-0.211l0.001-0.002c0.021-0.053 0.032-0.112 0.032-0.165 0-0.059-0.005-0.112-0.027-0.165-0.025-0.052-0.057-0.096-0.096-0.133l-0-0c-0.107-0.075-0.24-0.117-0.373-0.107h-0.331v0.816zM32.107 27.499h-0.219c-0.001 0-0.003 0-0.004 0-0.021 0-0.040-0.008-0.055-0.021l0 0c-0.016-0.010-0.029-0.025-0.037-0.042l-0-0.001-0.187-0.48h-0.939l-0.192 0.48c-0.005 0.016-0.021 0.032-0.032 0.043-0.021 0.011-0.043 0.021-0.064 0.021h-0.219l0.827-1.979h0.283l0.837 1.979zM30.747 26.763h0.773l-0.325-0.805c-0.023-0.050-0.045-0.11-0.062-0.173l-0.002-0.009-0.032 0.101c-0.011 0.032-0.021 0.059-0.027 0.085l-0.325 0.8zM33.291 25.531c0.016 0.011 0.032 0.021 0.043 0.037l1.2 1.488v-1.536h0.245v1.979h-0.139c-0.021 0-0.037-0.005-0.059-0.016-0.017-0.008-0.031-0.019-0.043-0.032l-0-0-1.2-1.488c0.005 0.021 0.005 0.043 0 0.064v1.472h-0.245v-1.979h0.149c0.016 0 0.032 0.005 0.048 0.011zM36.8 26.709v0.784h-0.277v-0.784l-0.757-1.189h0.245c0.021 0 0.043 0.005 0.059 0.021 0.016 0.011 0.027 0.027 0.037 0.043l0.475 0.768c0.019 0.026 0.035 0.056 0.047 0.088l0.001 0.003c0.016 0.027 0.027 0.053 0.037 0.085l0.037-0.085c0.011-0.032 0.027-0.064 0.043-0.091l0.469-0.773c0.011-0.016 0.021-0.032 0.037-0.043 0.016-0.012 0.036-0.020 0.058-0.021l0-0h0.245l-0.757 1.195zM25.643 22.208c0.117 0.016 0.24 0.027 0.363 0.037 1.851-0.789 3.419-2.080 4.501-3.712 1.088-1.632 1.643-3.536 1.6-5.467l-2.043-1.941c0.416 2.053 0.224 4.181-0.56 6.139-0.779 1.957-2.117 3.669-3.861 4.944z"></path>
<path d="M24.917 22.117l0.053 0.011c1.861-1.269 3.285-3.045 4.080-5.093s0.923-4.272 0.373-6.395l-2.907-2.768c0.91 1.717 1.445 3.754 1.445 5.916 0 0.503-0.029 1-0.085 1.488l0.006-0.059c-0.283 2.523-1.312 4.917-2.965 6.901zM34.768 15.349c-0.491 2.123-1.691 4.037-3.419 5.456-0.501 0.421-1.045 0.789-1.621 1.115 1.461-0.418 2.725-1.119 3.787-2.047l-0.011 0.010c1.077-0.944 1.915-2.112 2.443-3.413l-1.179-1.12z"></path>
<path d="M34.304 15.040l-1.675-1.6c-0.032 1.824-0.576 3.6-1.573 5.157-1.003 1.552-2.421 2.827-4.107 3.68h0.005c0.379 0 0.752-0.021 1.125-0.064 1.579-0.613 2.976-1.589 4.064-2.843 1.083-1.253 1.829-2.741 2.16-4.331zM25.157 6.709l-2-1.909c-1.792 0.656-3.328 1.813-4.416 3.317-1.088 1.509-1.669 3.291-1.675 5.12 0.005 2.016 0.72 3.979 2.027 5.568s3.131 2.72 5.189 3.205c1.835-2.128 2.907-4.763 3.067-7.515s-0.608-5.483-2.192-7.787zM38.933 14.741c-0.011-2.395-1.013-4.688-2.789-6.384-1.781-1.696-4.187-2.651-6.704-2.656-1.163 0-2.315 0.203-3.397 0.603l12.256 11.675c0.416-1.029 0.635-2.128 0.635-3.237z"></path>
</svg>
