<!-- Generated by IcoMoon.io -->
<svg version="1.1" xmlns="http://www.w3.org/2000/svg" width="57" height="32" viewBox="0 0 57 32">
<path d="M28.661 15.12c-0.224-0.325-0.331-0.709-0.309-1.099v-1.589c0-0.491 0.101-0.859 0.304-1.115 0.203-0.251 0.549-0.379 1.040-0.379 0.464 0 0.789 0.112 0.981 0.325 0.213 0.277 0.315 0.613 0.293 0.955v0.373h-0.827v-0.379c0.005-0.128-0.005-0.251-0.021-0.373-0.014-0.088-0.059-0.164-0.122-0.218l-0-0c-0.070-0.055-0.158-0.088-0.255-0.088-0.015 0-0.031 0.001-0.046 0.002l0.002-0c-0.013-0.001-0.027-0.002-0.042-0.002-0.103 0-0.198 0.035-0.274 0.093l0.001-0.001c-0.069 0.064-0.117 0.149-0.133 0.24-0.027 0.133-0.037 0.261-0.032 0.395v1.931c-0.016 0.187 0.021 0.373 0.107 0.544 0.037 0.053 0.096 0.101 0.16 0.128 0.069 0.032 0.144 0.043 0.213 0.032 0.107 0.011 0.213-0.021 0.293-0.085 0.065-0.060 0.11-0.141 0.122-0.233l0-0.002c0.021-0.128 0.027-0.261 0.027-0.389v-0.389h0.827v0.357c0.021 0.352-0.080 0.704-0.288 0.997-0.187 0.24-0.512 0.357-0.987 0.357s-0.832-0.128-1.035-0.389zM32.096 15.136c-0.208-0.251-0.315-0.608-0.315-1.088v-1.669c0-0.475 0.107-0.832 0.315-1.077 0.208-0.24 0.56-0.363 1.045-0.363s0.832 0.123 1.040 0.363c0.208 0.245 0.315 0.603 0.315 1.077v1.669c0 0.475-0.107 0.837-0.315 1.088-0.213 0.245-0.56 0.373-1.040 0.373s-0.837-0.128-1.045-0.373zM33.525 14.736c0.075-0.155 0.112-0.325 0.101-0.496v-2.048c0.011-0.171-0.027-0.336-0.096-0.485-0.043-0.059-0.101-0.105-0.168-0.132l-0.003-0.001c-0.069-0.032-0.144-0.043-0.219-0.032-0.075-0.011-0.149 0-0.219 0.032-0.069 0.027-0.128 0.075-0.171 0.133-0.075 0.149-0.107 0.315-0.096 0.485v2.059c-0.011 0.171 0.021 0.336 0.096 0.491 0.048 0.053 0.112 0.096 0.176 0.123 0.062 0.030 0.136 0.048 0.213 0.048s0.151-0.018 0.216-0.049l-0.003 0.001c0.064-0.027 0.123-0.069 0.171-0.123v-0.005zM35.493 10.992h0.885l0.672 3.083 0.683-3.083h0.864l0.085 4.453h-0.64l-0.064-3.099-0.661 3.099h-0.512l-0.683-3.109-0.064 3.109h-0.651l0.085-4.453zM39.68 10.992h1.387c0.795 0 1.195 0.421 1.195 1.264 0 0.805-0.421 1.211-1.259 1.211h-0.475v1.979h-0.853l0.005-4.453zM40.864 12.896c0.085 0.011 0.171 0 0.251-0.021 0.080-0.027 0.155-0.069 0.219-0.123 0.096-0.149 0.139-0.325 0.123-0.501 0.005-0.139-0.011-0.272-0.043-0.405-0.013-0.047-0.033-0.088-0.059-0.124l0.001 0.001c-0.032-0.035-0.069-0.065-0.11-0.089l-0.002-0.001c-0.117-0.053-0.245-0.075-0.379-0.069h-0.331v1.333h0.331zM43.493 10.992h0.917l0.944 4.453h-0.8l-0.181-1.029h-0.821l-0.192 1.029h-0.805l0.939-4.453zM44.277 13.904l-0.32-1.872-0.32 1.872h0.64zM46.112 10.992h0.603l1.141 2.539v-2.539h0.709v4.453h-0.565l-1.152-2.651v2.651h-0.736v-4.453zM50.229 13.744l-0.955-2.747h0.805l0.581 1.765 0.544-1.765h0.784l-0.939 2.747v1.701h-0.821v-1.701zM29.979 17.392v0.235h-0.699v1.813h-0.293v-1.813h-0.699v-0.235h1.691zM32.165 19.44h-0.224c-0.027 0-0.048-0.005-0.064-0.021-0.018-0.011-0.031-0.028-0.037-0.047l-0-0.001-0.203-0.485h-0.971l-0.197 0.485c-0.005 0.021-0.016 0.043-0.032 0.059-0.016 0.011-0.043 0.016-0.064 0.016h-0.224l0.853-2.043h0.299l0.864 2.037zM30.752 18.677h0.805l-0.341-0.832c-0.025-0.055-0.047-0.119-0.063-0.185l-0.001-0.007c-0.011 0.043-0.021 0.080-0.032 0.112l-0.032 0.085-0.336 0.827zM33.637 19.237c0.024 0.003 0.051 0.004 0.079 0.004 0.078 0 0.154-0.011 0.225-0.032l-0.006 0.001c0.043-0.005 0.085-0.021 0.123-0.037 0.037-0.011 0.075-0.032 0.112-0.048v-0.459h-0.341c-0.005 0-0.016 0-0.021-0.005-0.011 0-0.016-0.005-0.021-0.011l-0.016-0.016c0-0.005-0.005-0.016 0-0.021v-0.16h0.661v0.784c-0.053 0.037-0.112 0.069-0.171 0.101-0.064 0.027-0.128 0.048-0.192 0.069-0.069 0.016-0.139 0.032-0.213 0.037-0.080 0.011-0.165 0.016-0.251 0.016-0.144 0-0.293-0.027-0.427-0.075-0.132-0.053-0.245-0.125-0.342-0.214l0.001 0.001c-0.091-0.092-0.166-0.199-0.221-0.318l-0.003-0.007c-0.050-0.127-0.079-0.273-0.079-0.427s0.029-0.3 0.082-0.435l-0.003 0.008c0.048-0.117 0.123-0.229 0.219-0.32 0.101-0.096 0.213-0.165 0.341-0.213 0.149-0.053 0.304-0.080 0.459-0.075 0.080 0 0.16 0.005 0.24 0.016 0.069 0.011 0.139 0.027 0.203 0.053 0.123 0.044 0.23 0.108 0.321 0.188l-0.001-0.001-0.085 0.123c-0.005 0.016-0.016 0.021-0.027 0.032-0.011 0.005-0.021 0.011-0.037 0.011-0.021 0-0.037-0.005-0.053-0.016-0.027-0.016-0.053-0.032-0.085-0.048-0.037-0.021-0.075-0.043-0.112-0.059-0.053-0.016-0.107-0.032-0.16-0.043-0.062-0.014-0.133-0.021-0.206-0.021-0.121 0-0.238 0.021-0.345 0.061l0.007-0.002c-0.096 0.037-0.181 0.091-0.251 0.16-0.075 0.075-0.128 0.16-0.16 0.256-0.075 0.224-0.075 0.459 0 0.683 0.037 0.096 0.096 0.181 0.171 0.256 0.069 0.069 0.155 0.128 0.251 0.16 0.107 0.037 0.224 0.053 0.336 0.043zM36.363 19.205h0.933v0.235h-1.221v-2.048h0.293l-0.005 1.813zM38.267 19.44h-0.293v-2.048h0.293v2.048zM39.355 17.403c0.016 0.011 0.032 0.021 0.043 0.037l1.253 1.541c-0.003-0.011-0.004-0.024-0.004-0.037s0.001-0.026 0.004-0.038l-0 0.001v-1.52h0.251v2.053h-0.144c-0.021 0-0.043-0.005-0.064-0.016-0.021-0.005-0.032-0.021-0.048-0.037l-1.248-1.536v1.589h-0.245v-2.048h0.155c0.016 0 0.032 0.005 0.048 0.011zM43.056 17.392v0.229h-1.035v0.672h0.837v0.219h-0.837v0.699h1.035v0.224h-1.339v-2.043h1.339zM12.427 4.773l12.976 3.488v12.224l-12.976-3.488v-12.224zM11.595 3.733v13.861l14.64 3.936v-13.861l-14.64-3.936z"></path>
<path d="M19.44 27.968l-14.64-3.941v-13.861l14.64 3.936v13.867z"></path>
<path d="M11.835 4.613l12.811 3.445-5.445 5.163-12.811-3.451 5.445-5.157zM11.595 3.733l-6.795 6.432 14.64 3.936 6.795-6.432-14.64-3.936zM20.267 27.184l5.968-5.653-5.968-1.605v7.259z"></path>
</svg>
