<!-- Generated by IcoMoon.io -->
<svg version="1.1" xmlns="http://www.w3.org/2000/svg" width="57" height="32" viewBox="0 0 57 32">
<path d="M13.541 11.643h0.005c1.205 0 2.181 0.949 2.181 2.128 0 1.173-0.976 2.128-2.181 2.128h-0.005c-1.205 0-2.181-0.955-2.181-2.128 0-1.179 0.976-2.128 2.181-2.128z"></path>
<path d="M29.669 10.96c0-1.632-0.672-3.2-1.856-4.352-1.149-1.118-2.72-1.808-4.453-1.808-0.004 0-0.008 0-0.012 0h0.001c-1.68 0-3.285 0.651-4.469 1.808-1.184 1.152-1.856 2.72-1.856 4.352v9.008s12.645-1.376 12.645-9.008zM6.933 22.923c0 1.136 0.464 2.224 1.291 3.029 0.803 0.776 1.897 1.255 3.103 1.259h0.001c1.168-0.005 2.283-0.459 3.109-1.259 0.794-0.767 1.287-1.84 1.291-3.029v-6.267s-8.795 0.955-8.795 6.267zM11.328 24.043c-0.224 0-0.448-0.064-0.64-0.187-0.187-0.123-0.336-0.299-0.421-0.507-0.056-0.123-0.089-0.268-0.089-0.42 0-0.080 0.009-0.158 0.026-0.233l-0.001 0.007c0.043-0.219 0.149-0.421 0.315-0.576 0.16-0.16 0.363-0.267 0.587-0.309s0.459-0.021 0.667 0.064c0.213 0.085 0.389 0.229 0.517 0.416 0.128 0.181 0.192 0.4 0.192 0.624 0.005 0.144-0.027 0.293-0.085 0.432-0.059 0.133-0.139 0.256-0.251 0.363-0.107 0.107-0.229 0.187-0.373 0.245-0.139 0.059-0.288 0.085-0.443 0.085v-0.005z"></path>
<path d="M22.448 23.781q0.117-0.256 0.117-0.592v-0.101q0-0.331-0.123-0.587-0.091-0.197-0.24-0.32-0.048-0.043-0.101-0.075-0.048-0.027-0.096-0.048-0.181-0.085-0.411-0.085-0.224 0-0.411 0.085-0.048 0.021-0.096 0.048-0.053 0.032-0.101 0.075-0.149 0.123-0.24 0.32-0.117 0.256-0.117 0.592v0.112q0 0.325 0.123 0.581 0.085 0.181 0.229 0.304 0.053 0.043 0.112 0.080 0.053 0.032 0.101 0.053 0.187 0.085 0.405 0.085 0.229 0 0.416-0.091 0.048-0.021 0.091-0.048 0.064-0.037 0.117-0.085 0.139-0.123 0.224-0.304zM24.048 23.536q0.037 0.059 0.037 0.144 0 0.069-0.032 0.123-0.021 0.037-0.064 0.069-0.091 0.064-0.261 0.064-0.261 0-0.373-0.128-0.075-0.091-0.075-0.245h-0.469q0 0.165 0.064 0.299 0.021 0.048 0.048 0.085 0.005 0.005 0.005 0.011 0.112 0.16 0.325 0.256t0.475 0.096q0.379 0 0.603-0.171 0.096-0.069 0.155-0.165 0.069-0.128 0.069-0.299 0-0.149-0.059-0.272-0.043-0.091-0.123-0.171-0.181-0.176-0.581-0.299-0.219-0.064-0.331-0.139-0.080-0.053-0.101-0.123-0.011-0.032-0.011-0.064 0-0.059 0.021-0.107 0.027-0.048 0.075-0.085 0.096-0.069 0.267-0.069 0.176 0 0.277 0.085 0.021 0.021 0.043 0.048 0.053 0.075 0.053 0.192h0.469q0-0.139-0.048-0.256-0.021-0.059-0.059-0.107-0.021-0.037-0.048-0.069-0.096-0.112-0.245-0.181-0.192-0.085-0.437-0.085-0.24 0-0.432 0.080-0.197 0.080-0.299 0.224-0.043 0.059-0.069 0.123-0.037 0.096-0.037 0.208 0 0.107 0.037 0.197 0.080 0.219 0.352 0.368 0.139 0.075 0.384 0.155 0.245 0.075 0.336 0.149 0.037 0.021 0.059 0.059zM42.347 23.536q0.043 0.059 0.043 0.144 0 0.069-0.032 0.123-0.021 0.037-0.064 0.069-0.091 0.064-0.261 0.064-0.261 0-0.373-0.128-0.075-0.091-0.075-0.245h-0.469q0 0.165 0.064 0.299 0.021 0.048 0.048 0.085 0 0.005 0.005 0.011 0.112 0.16 0.325 0.256t0.475 0.096q0.379 0 0.603-0.171 0.096-0.069 0.149-0.165 0.075-0.128 0.075-0.299 0-0.149-0.059-0.272-0.043-0.091-0.123-0.171-0.187-0.176-0.587-0.299-0.213-0.064-0.325-0.139-0.080-0.053-0.101-0.123-0.011-0.032-0.011-0.064 0-0.059 0.021-0.107 0.027-0.048 0.075-0.085 0.096-0.069 0.267-0.069 0.176 0 0.277 0.085 0.021 0.021 0.043 0.048 0.053 0.075 0.053 0.192h0.469q0-0.139-0.048-0.256-0.027-0.059-0.059-0.107-0.021-0.037-0.048-0.069-0.096-0.112-0.245-0.181-0.192-0.085-0.437-0.085-0.24 0-0.437 0.080-0.192 0.080-0.299 0.224-0.043 0.059-0.064 0.123-0.037 0.096-0.037 0.208 0 0.107 0.032 0.197 0.085 0.219 0.357 0.368 0.139 0.075 0.384 0.155 0.245 0.075 0.336 0.149 0.032 0.021 0.053 0.059zM19.413 23.349h0.896v-0.379h-0.896v-0.587h1.013v-0.384h-1.483v2.277h0.469v-0.928zM25.888 22.384h0.699v-0.384h-1.856v0.384h0.688v1.893h0.469v-1.893zM27.323 23.291h0.896v-0.368h-0.896v-0.539h1.051v-0.384h-1.52v2.277h1.525v-0.379h-1.056v-0.608zM29.12 23.445h0.373l0.427 0.832h0.507v-0.021l-0.496-0.928q0.208-0.096 0.309-0.251 0.096-0.155 0.096-0.389 0-0.229-0.107-0.384-0.043-0.069-0.112-0.123-0.219-0.181-0.619-0.181h-0.848v2.277h0.469v-0.832zM31.963 24.277v-0.8h0.411q0.4 0 0.629-0.197 0.080-0.064 0.133-0.149 0.096-0.155 0.096-0.373 0-0.176-0.064-0.32-0.016-0.037-0.037-0.075-0.032-0.053-0.069-0.096-0.096-0.107-0.229-0.171-0.197-0.096-0.453-0.096h-0.885v2.277h0.469zM34.027 23.291h0.896v-0.368h-0.896v-0.539h1.051v-0.384h-1.52v2.277h1.525v-0.379h-1.056v-0.608zM36.4 22.384h0.699v-0.384h-1.851v0.384h0.688v1.893h0.464v-1.893zM37.835 23.291h0.901v-0.368h-0.901v-0.539h1.056v-0.384h-1.525v2.277h1.525v-0.379h-1.056v-0.608zM39.637 23.445h0.373l0.427 0.832h0.501v-0.021l-0.491-0.928q0.203-0.096 0.304-0.251t0.101-0.389q0-0.229-0.107-0.384-0.048-0.069-0.112-0.123-0.219-0.181-0.624-0.181h-0.843v2.277h0.469v-0.832zM21.963 22.544q0.128 0.187 0.128 0.544v0.112q0 0.352-0.128 0.539-0.059 0.080-0.133 0.128-0.096 0.059-0.229 0.059t-0.229-0.059q-0.080-0.048-0.139-0.133-0.128-0.192-0.128-0.544v-0.107q0-0.357 0.128-0.539 0.059-0.085 0.133-0.128 0.096-0.059 0.229-0.059t0.235 0.059q0.075 0.048 0.133 0.128zM29.499 23.067h-0.379v-0.683h0.379q0.187 0 0.277 0.091l0.027 0.027q0.069 0.091 0.069 0.224 0 0.123-0.059 0.203-0.016 0.027-0.043 0.048l-0.005 0.005q-0.096 0.085-0.267 0.085zM32.379 23.093h-0.416v-0.709h0.427q0.144 0 0.235 0.069 0.021 0.016 0.037 0.032 0.021 0.027 0.037 0.053 0.064 0.091 0.064 0.219 0 0.133-0.064 0.213-0.016 0.021-0.037 0.037-0.096 0.085-0.283 0.085zM40.011 23.067h-0.373v-0.683h0.373q0.192 0 0.283 0.091 0.011 0.016 0.027 0.027 0.064 0.091 0.064 0.224 0 0.123-0.059 0.203-0.016 0.027-0.037 0.048-0.005 0-0.005 0.005-0.096 0.085-0.272 0.085z"></path>
</svg>
