
<svg version="1.1" xmlns="http://www.w3.org/2000/svg" width="29" height="32" viewBox="0 0 29 32">
<title>man</title>
<path d="M28.361 13.626c-0.321-0.432-0.802-0.73-1.353-0.807l-0.011-0.001c-0.088-0.013-0.189-0.021-0.291-0.021-0.471 0-0.905 0.16-1.25 0.428l0.005-0.003-1.438 1.101-2.178 1.626-1.558-0.621c2.778-1.247 4.72-4.026 4.72-7.253 0-4.387-3.583-7.956-7.988-7.956s-7.988 3.57-7.988 7.957c0 1.59 0.476 3.069 1.285 4.313l-3.177-0.028c-0.010 0-0.018 0.005-0.027 0.005-0.065 0.003-0.126 0.016-0.183 0.038l0.004-0.001c-0.015 0.005-0.030 0.008-0.044 0.015-0.007 0.003-0.015 0.004-0.022 0.007l-3.71 1.831c-0.001 0-0.002 0-0.002 0.001l-2.172 1.044c-0.028 0.013-0.052 0.026-0.074 0.041l0.002-0.001c-0.553 0.371-0.912 0.995-0.912 1.702 0 0.341 0.083 0.662 0.231 0.944l-0.005-0.011c0.252 0.486 0.68 0.852 1.197 1.016l0.014 0.004c0.184 0.061 0.396 0.095 0.617 0.095 0.354 0 0.686-0.090 0.976-0.248l-0.011 0.005 1.593-0.847 2.598-1.342 1.557-0.009-6.245 6.214c0 0.001-0.001 0.001-0.002 0.002l-1.536 1.53c-0.348 0.343-0.563 0.82-0.563 1.347 0 0.002 0 0.004 0 0.006v0c0.002 1.055 0.858 1.91 1.913 1.91 0.001 0 0.002 0 0.003 0v0c0.491 0 0.98-0.186 1.354-0.557l1.508-1.502 1.998-1.491 1.033 1.029-3.559 3.544c-0.348 0.343-0.563 0.82-0.563 1.347 0 0.002 0 0.003 0 0.005v0c0 0.51 0.199 0.991 0.563 1.353 0.346 0.344 0.823 0.557 1.35 0.557 0.001 0 0.003 0 0.004 0v0c0.49 0 0.981-0.186 1.354-0.557l5.15-5.132c0.008-0.007 0.018-0.010 0.026-0.018l5.928-6.493 3.983 0.567c0.029 0.004 0.058 0.006 0.087 0.006 0.073 0 0.145-0.018 0.215-0.044 0.020-0.007 0.037-0.017 0.057-0.027 0.022-0.011 0.045-0.017 0.066-0.031l3.687-2.448c0.014-0.009 0.021-0.024 0.034-0.034 0.015-0.012 0.033-0.016 0.047-0.029l1.458-1.367c0.399-0.374 0.647-0.904 0.647-1.492 0-0.459-0.152-0.883-0.407-1.224l0.004 0.005zM2.445 17.769c-0.113 0.062-0.247 0.099-0.39 0.099-0.090 0-0.176-0.014-0.257-0.041l0.006 0.002c-0.338-0.107-0.579-0.417-0.579-0.784 0-0.27 0.131-0.51 0.333-0.66l0.002-0.002 1.508-0.726 0.363 1.061 0.152 0.446-1.138 0.605zM6.458 15.672l-1.777 0.918-0.293-0.857-0.211-0.616 2.326-1.148-0.046 1.703zM23.785 8.075c0 1.054-0.252 2.048-0.687 2.937l-4.798-2.18c-0.050-0.66-0.393-1.231-0.898-1.588l-0.007-0.004 1.68-5.577c2.728 0.868 4.71 3.413 4.71 6.412zM10.257 8.075c0-3.712 3.034-6.733 6.764-6.733 0.29 0 0.574 0.025 0.855 0.060l-1.644 5.454c-0.022 0-0.043-0.006-0.066-0.006 0 0-0.001 0-0.001 0-1.184 0-2.144 0.958-2.148 2.142v0c0.004 1.184 0.964 2.142 2.148 2.142 0 0 0 0 0.001 0v0c0.797 0 1.486-0.44 1.857-1.084l4.433 2.014c-1.234 1.66-3.207 2.742-5.436 2.742-3.73 0-6.764-3.020-6.764-6.732zM17.092 8.993c0 0.506-0.415 0.918-0.925 0.918 0 0-0.001 0-0.002 0-0.508 0-0.92-0.41-0.923-0.918v0c0-0.506 0.414-0.918 0.924-0.918s0.925 0.412 0.925 0.918zM2.828 26.233c-0.126 0.125-0.3 0.202-0.491 0.202s-0.364-0.077-0.49-0.201v0c-0.125-0.124-0.202-0.295-0.202-0.484s0.077-0.361 0.202-0.484v0l1.104-1.1 0.978 0.973-1.1 1.096zM6.516 30.517c-0.126 0.125-0.3 0.202-0.491 0.202s-0.364-0.077-0.49-0.201v0c-0.125-0.124-0.202-0.295-0.202-0.484s0.077-0.361 0.202-0.484v0l1.105-1.101 0.977 0.973-1.101 1.096zM10.511 26.537l-0.002 0.002-2.025 2.020-0.978-0.973 2.025-2.016c0.046-0.046 0.075-0.101 0.103-0.156 0.008-0.016 0.023-0.029 0.030-0.046 0.019-0.047 0.022-0.098 0.029-0.147 0.004-0.028 0.016-0.055 0.016-0.084 0-0.040-0.015-0.080-0.023-0.121-0.007-0.037-0.007-0.074-0.021-0.11-0.028-0.060-0.063-0.112-0.105-0.158v0c-0.012-0.014-0.016-0.031-0.028-0.044h-0.001s0-0.002-0.001-0.002l-1.844-1.836c-0.019-0.020-0.045-0.028-0.067-0.044-0.029-0.024-0.062-0.046-0.097-0.065l-0.003-0.002c-0.030-0.014-0.066-0.027-0.103-0.036l-0.004-0.001c-0.034-0.011-0.075-0.019-0.116-0.023h-0.002c-0.008 0-0.017-0.001-0.027-0.001-0.029 0-0.058 0.002-0.086 0.006h0.003c-0.041 0.005-0.079 0.011-0.119 0.024-0.041 0.015-0.077 0.032-0.11 0.053l0.002-0.001c-0.023 0.013-0.049 0.017-0.070 0.033l-2.035 1.519-1.033-1.030 2.753-2.738 5.004 4.922-1.064 1.054zM18.337 18.485c-0.018-0.002-0.035 0.004-0.052 0.003-0.009 0-0.020-0.001-0.031-0.001-0.036 0-0.071 0.003-0.105 0.009l0.004-0.001c-0.080 0.013-0.151 0.040-0.214 0.080l0.002-0.001c-0.036 0.021-0.067 0.045-0.095 0.071v0c-0.015 0.013-0.033 0.019-0.046 0.034l-5.391 5.905-4.967-4.884 3.251-3.234c0.111-0.111 0.179-0.264 0.179-0.433 0-0.338-0.274-0.613-0.613-0.613-0.001 0-0.001 0-0.002 0v0l-2.546 0.015 0.032-1.844 3.562 0.030c1.45 1.488 3.474 2.411 5.713 2.411 0.001 0 0.003 0 0.004 0v0c0.502 0 0.991-0.052 1.468-0.141 0.046 0.037 0.091 0.073 0.148 0.097l2.766 1.102 0.175 0.871 0.205 1.016-3.446-0.491zM22.974 18.69l-0.359-1.788 1.66-1.24 1.086 1.443-2.387 1.584zM27.281 15.441l-0.961 0.901-1.069-1.418 0.954-0.731c0.178-0.137 0.403-0.193 0.623-0.164 0.221 0.031 0.418 0.147 0.551 0.326 0.101 0.135 0.162 0.304 0.162 0.489 0 0.236-0.1 0.448-0.259 0.598v0z"></path>
</svg>
