<!-- Generated by IcoMoon.io -->
<svg version="1.1" xmlns="http://www.w3.org/2000/svg" width="57" height="32" viewBox="0 0 57 32">
<path d="M19.733 2.667l3.893 3.685h10.875v10.293l3.899 3.691v-17.669h-18.667z"></path>
<path d="M16.533 6.197v17.168h18.133v-6.827l-10.923-10.336-7.211-0.005zM31.211 20.853h-11.813v-11.547h0.837v10.763h10.976v0.784z"></path>
<path d="M24.939 26.907q-0.016 0.059-0.016 0.128 0 0.144 0.059 0.251 0.043 0.075 0.107 0.139 0.016 0.011 0.037 0.027 0.16 0.123 0.416 0.123 0.208 0 0.379-0.085 0.053-0.032 0.107-0.069l0.107 0.128h0.363l-0.277-0.331q0.165-0.224 0.165-0.576h-0.272q0 0.171-0.064 0.315-0.011 0.016-0.016 0.037l-0.368-0.432 0.128-0.096q0.139-0.101 0.197-0.197 0.027-0.043 0.043-0.091 0.016-0.064 0.016-0.128 0-0.091-0.032-0.165t-0.101-0.139q-0.027-0.027-0.064-0.048-0.117-0.069-0.272-0.069-0.192 0-0.32 0.091-0.021 0.016-0.043 0.037-0.032 0.027-0.059 0.064-0.080 0.117-0.080 0.288 0 0.091 0.043 0.187 0.043 0.101 0.155 0.24-0.208 0.149-0.283 0.261-0.032 0.053-0.053 0.112zM28.672 27.323q0.123-0.155 0.144-0.395h-0.325q-0.027 0.203-0.123 0.293-0.101 0.085-0.293 0.085-0.128 0-0.219-0.059-0.059-0.037-0.107-0.101-0.107-0.165-0.107-0.469v-0.171q0-0.304 0.117-0.459 0.043-0.059 0.101-0.096 0.096-0.059 0.229-0.059 0.187 0 0.277 0.091 0.096 0.091 0.123 0.293h0.325q-0.027-0.267-0.171-0.432-0.021-0.027-0.048-0.048-0.027-0.027-0.053-0.043-0.181-0.128-0.453-0.128-0.197 0-0.352 0.075-0.032 0.016-0.059 0.032-0.048 0.032-0.091 0.069-0.112 0.101-0.181 0.245-0.096 0.208-0.096 0.475v0.176q0.005 0.261 0.096 0.459 0.069 0.149 0.181 0.245 0.037 0.032 0.085 0.064 0.027 0.016 0.053 0.027 0.155 0.080 0.347 0.080 0.299 0 0.485-0.144 0.016-0.016 0.032-0.027 0.043-0.037 0.080-0.080zM30.528 27.136q0.096-0.208 0.096-0.491v-0.101q0-0.277-0.096-0.491-0.075-0.16-0.203-0.261-0.037-0.032-0.075-0.059-0.037-0.021-0.075-0.037-0.149-0.069-0.336-0.069t-0.336 0.069q-0.037 0.016-0.075 0.043-0.037 0.021-0.069 0.048-0.133 0.107-0.208 0.277-0.101 0.208-0.101 0.485v0.107q0.005 0.272 0.101 0.48 0.075 0.16 0.192 0.261l0.085 0.064q0.043 0.027 0.091 0.048 0.144 0.064 0.32 0.064 0.187 0 0.341-0.075 0.037-0.016 0.069-0.037 0.043-0.027 0.080-0.059 0.123-0.107 0.197-0.267zM22.187 25.648l-0.432 0.901-0.437-0.901h-0.368l0.64 1.2v0.699h0.331v-0.699l0.635-1.2h-0.368zM22.736 27.547l0.155-0.443h0.736l0.155 0.443h0.341l-0.715-1.899h-0.299l-0.715 1.899h0.341zM25.509 26.373q-0.133-0.165-0.133-0.277 0-0.069 0.032-0.123l0.021-0.032q0.021-0.021 0.043-0.037 0.043-0.027 0.107-0.027 0.059 0 0.101 0.027 0.021 0.011 0.037 0.027 0.032 0.032 0.048 0.064 0.011 0.032 0.011 0.064 0 0.059-0.027 0.112-0.021 0.037-0.053 0.069l-0.043 0.032-0.144 0.101zM30.176 26.064q0.117 0.171 0.117 0.485v0.096q0 0.32-0.117 0.491-0.048 0.069-0.112 0.107-0.096 0.059-0.224 0.059-0.117 0-0.203-0.048-0.080-0.043-0.133-0.123-0.123-0.171-0.123-0.485v-0.107q0.005-0.304 0.123-0.475 0.053-0.075 0.128-0.117 0.091-0.048 0.208-0.048 0.123 0 0.213 0.053 0.069 0.043 0.123 0.112zM23.259 26.053l0.272 0.784h-0.549l0.277-0.784zM25.637 27.312q-0.043 0.005-0.085 0.005-0.117 0-0.197-0.053-0.016-0.011-0.032-0.027-0.027-0.027-0.048-0.059-0.037-0.064-0.037-0.155 0-0.032 0.005-0.059 0.027-0.117 0.149-0.213l0.043-0.027 0.416 0.485q-0.101 0.080-0.213 0.101z"></path>
</svg>
